<svg width="969" height="302" viewBox="0 0 969 302" fill="none" xmlns="http://www.w3.org/2000/svg">
<rect x="303" y="1" width="665" height="300" rx="150" stroke="white" stroke-width="2"/>
<path d="M465.98 96.14L465.98 137.908C462.668 138.337 459.724 138.613 457.148 138.736C454.633 138.92 452.548 139.012 450.892 139.012C445.249 139.012 440.189 138.123 435.712 136.344C431.235 134.565 427.463 132.02 424.396 128.708C421.329 125.335 418.968 121.287 417.312 116.564C415.717 111.78 414.92 106.444 414.92 100.556C414.92 94.9133 415.687 89.7307 417.22 85.008C418.753 80.224 421.023 76.1147 424.028 72.68C427.095 69.184 430.897 66.4853 435.436 64.584C440.036 62.6213 445.341 61.64 451.352 61.64C453.928 61.64 456.136 61.824 457.976 62.192C459.877 62.4987 461.717 62.928 463.496 63.48C463.496 64.4613 463.496 65.5347 463.496 66.7C463.557 67.8653 463.588 69.1227 463.588 70.472C463.588 71.8213 463.557 73.2627 463.496 74.796C463.496 76.3293 463.496 77.7093 463.496 78.936C460.491 77.3413 457.056 76.544 453.192 76.544C449.819 76.544 446.997 77.1267 444.728 78.292C442.459 79.396 440.619 80.8373 439.208 82.616C437.859 84.3947 436.877 86.388 436.264 88.596C435.712 90.7427 435.436 92.828 435.436 94.852C435.436 97.1827 435.773 99.452 436.448 101.66C437.184 103.868 438.257 105.831 439.668 107.548C441.079 109.265 442.827 110.645 444.912 111.688C447.059 112.731 449.573 113.252 452.456 113.252C452.763 113.252 453.039 113.252 453.284 113.252C453.591 113.252 453.897 113.221 454.204 113.16L454.204 96.14H465.98ZM472.971 138C473.155 132.173 473.277 126.377 473.339 120.612C473.4 114.785 473.431 109.265 473.431 104.052C473.431 96.6307 473.369 89.5773 473.247 82.892C473.185 76.2067 473.093 69.4907 472.971 62.744C475.976 62.4373 478.981 62.192 481.987 62.008C485.053 61.7627 488.151 61.64 491.279 61.64C495.756 61.64 499.957 61.9773 503.883 62.652C507.808 63.2653 511.212 64.4613 514.095 66.24C516.977 67.9573 519.247 70.3493 520.903 73.416C522.62 76.4827 523.479 80.4387 523.479 85.284C523.479 91.2947 522.221 96.0173 519.707 99.452C517.253 102.887 513.911 105.463 509.679 107.18L524.675 138H508.299L496.063 109.94C493.548 110.124 490.941 110.216 488.243 110.216C488.243 114.939 488.273 119.569 488.335 124.108C488.396 128.647 488.58 133.277 488.887 138H472.971ZM488.243 96.232C490.144 96.416 491.892 96.508 493.487 96.508C497.657 96.508 500.601 95.7413 502.319 94.208C504.097 92.6133 504.987 90.252 504.987 87.124C504.987 85.2227 504.711 83.6893 504.159 82.524C503.668 81.3587 502.963 80.4387 502.043 79.764C501.184 79.0893 500.141 78.6293 498.915 78.384C497.749 78.1387 496.492 78.016 495.143 78.016C494.161 78.016 493.057 78.0773 491.831 78.2C490.665 78.2613 489.469 78.384 488.243 78.568L488.243 96.232ZM554.761 61.64C563.9 61.64 570.647 64.8907 575.001 71.392C579.356 77.8933 581.533 87.3387 581.533 99.728C581.533 112.301 579.387 121.992 575.093 128.8C570.861 135.608 564.084 139.012 554.761 139.012C550.161 139.012 546.175 138.153 542.801 136.436C539.428 134.657 536.637 132.112 534.429 128.8C532.221 125.427 530.596 121.317 529.553 116.472C528.511 111.565 527.989 105.984 527.989 99.728C527.989 87.1547 530.167 77.6787 534.521 71.3C538.876 64.86 545.623 61.64 554.761 61.64ZM554.761 115.276C556.724 115.276 558.441 114.847 559.913 113.988C561.447 113.068 562.704 111.841 563.685 110.308C564.667 108.713 565.403 106.843 565.893 104.696C566.384 102.488 566.629 100.065 566.629 97.428C566.629 94.7907 566.384 92.368 565.893 90.16C565.403 87.8907 564.667 85.928 563.685 84.272C562.704 82.616 561.447 81.328 559.913 80.408C558.441 79.488 556.724 79.028 554.761 79.028C552.799 79.028 551.081 79.5187 549.609 80.5C548.199 81.42 546.972 82.708 545.929 84.364C544.948 86.02 544.212 87.9827 543.721 90.252C543.231 92.46 542.985 94.852 542.985 97.428C542.985 100.065 543.231 102.488 543.721 104.696C544.212 106.843 544.948 108.713 545.929 110.308C546.972 111.841 548.199 113.068 549.609 113.988C551.081 114.847 552.799 115.276 554.761 115.276ZM613.494 61.64C622.633 61.64 629.379 64.8907 633.734 71.392C638.089 77.8933 640.266 87.3387 640.266 99.728C640.266 112.301 638.119 121.992 633.826 128.8C629.594 135.608 622.817 139.012 613.494 139.012C608.894 139.012 604.907 138.153 601.534 136.436C598.161 134.657 595.37 132.112 593.162 128.8C590.954 125.427 589.329 121.317 588.286 116.472C587.243 111.565 586.722 105.984 586.722 99.728C586.722 87.1547 588.899 77.6787 593.254 71.3C597.609 64.86 604.355 61.64 613.494 61.64ZM613.494 115.276C615.457 115.276 617.174 114.847 618.646 113.988C620.179 113.068 621.437 111.841 622.418 110.308C623.399 108.713 624.135 106.843 624.626 104.696C625.117 102.488 625.362 100.065 625.362 97.428C625.362 94.7907 625.117 92.368 624.626 90.16C624.135 87.8907 623.399 85.928 622.418 84.272C621.437 82.616 620.179 81.328 618.646 80.408C617.174 79.488 615.457 79.028 613.494 79.028C611.531 79.028 609.814 79.5187 608.342 80.5C606.931 81.42 605.705 82.708 604.662 84.364C603.681 86.02 602.945 87.9827 602.454 90.252C601.963 92.46 601.718 94.852 601.718 97.428C601.718 100.065 601.963 102.488 602.454 104.696C602.945 106.843 603.681 108.713 604.662 110.308C605.705 111.841 606.931 113.068 608.342 113.988C609.814 114.847 611.531 115.276 613.494 115.276ZM678.716 62.744H694.356L679.452 138H656.636L641.732 62.744H657.464L668.044 119.968L678.716 62.744ZM722.514 61.64C731.653 61.64 738.399 64.8907 742.754 71.392C747.109 77.8933 749.286 87.3387 749.286 99.728C749.286 112.301 747.139 121.992 742.846 128.8C738.614 135.608 731.837 139.012 722.514 139.012C717.914 139.012 713.927 138.153 710.554 136.436C707.181 134.657 704.39 132.112 702.182 128.8C699.974 125.427 698.349 121.317 697.306 116.472C696.263 111.565 695.742 105.984 695.742 99.728C695.742 87.1547 697.919 77.6787 702.274 71.3C706.629 64.86 713.375 61.64 722.514 61.64ZM722.514 115.276C724.477 115.276 726.194 114.847 727.666 113.988C729.199 113.068 730.457 111.841 731.438 110.308C732.419 108.713 733.155 106.843 733.646 104.696C734.137 102.488 734.382 100.065 734.382 97.428C734.382 94.7907 734.137 92.368 733.646 90.16C733.155 87.8907 732.419 85.928 731.438 84.272C730.457 82.616 729.199 81.328 727.666 80.408C726.194 79.488 724.477 79.028 722.514 79.028C720.551 79.028 718.834 79.5187 717.362 80.5C715.951 81.42 714.725 82.708 713.682 84.364C712.701 86.02 711.965 87.9827 711.474 90.252C710.983 92.46 710.738 94.852 710.738 97.428C710.738 100.065 710.983 102.488 711.474 104.696C711.965 106.843 712.701 108.713 713.682 110.308C714.725 111.841 715.951 113.068 717.362 113.988C718.834 114.847 720.551 115.276 722.514 115.276ZM755.763 138C755.947 132.173 756.069 126.377 756.131 120.612C756.192 114.785 756.223 109.265 756.223 104.052C756.223 96.6307 756.161 89.5773 756.039 82.892C755.977 76.2067 755.885 69.4907 755.763 62.744C758.768 62.4373 761.773 62.192 764.779 62.008C767.845 61.7627 770.943 61.64 774.071 61.64C778.548 61.64 782.749 61.9773 786.675 62.652C790.6 63.2653 794.004 64.4613 796.887 66.24C799.769 67.9573 802.039 70.3493 803.695 73.416C805.412 76.4827 806.271 80.4387 806.271 85.284C806.271 91.2947 805.013 96.0173 802.499 99.452C800.045 102.887 796.703 105.463 792.471 107.18L807.467 138H791.091L778.855 109.94C776.34 110.124 773.733 110.216 771.035 110.216C771.035 114.939 771.065 119.569 771.127 124.108C771.188 128.647 771.372 133.277 771.679 138L755.763 138ZM771.035 96.232C772.936 96.416 774.684 96.508 776.279 96.508C780.449 96.508 783.393 95.7413 785.111 94.208C786.889 92.6133 787.779 90.252 787.779 87.124C787.779 85.2227 787.503 83.6893 786.951 82.524C786.46 81.3587 785.755 80.4387 784.835 79.764C783.976 79.0893 782.933 78.6293 781.707 78.384C780.541 78.1387 779.284 78.016 777.935 78.016C776.953 78.016 775.849 78.0773 774.623 78.2C773.457 78.2613 772.261 78.384 771.035 78.568L771.035 96.232ZM842.214 62.744H857.394L839.454 110.4L839.454 114.54C839.454 118.711 839.454 122.084 839.454 124.66C839.454 127.175 839.454 129.26 839.454 130.916C839.454 132.511 839.454 133.829 839.454 134.872C839.515 135.853 839.546 136.896 839.546 138H823.63C823.753 134.013 823.845 129.843 823.906 125.488C823.967 121.133 824.029 116.104 824.09 110.4L806.242 62.744H821.514L831.818 94.116L842.214 62.744ZM416.576 241C416.637 240.019 416.668 238.363 416.668 236.032C416.729 233.64 416.76 230.849 416.76 227.66C416.76 224.409 416.76 220.852 416.76 216.988C416.76 213.124 416.76 209.168 416.76 205.12C416.76 201.072 416.76 197.055 416.76 193.068C416.76 189.02 416.76 185.248 416.76 181.752C416.76 178.256 416.729 175.128 416.668 172.368C416.668 169.608 416.637 167.431 416.576 165.836C418.968 165.836 421.605 165.836 424.488 165.836C427.371 165.775 430.315 165.744 433.32 165.744C436.325 165.683 439.269 165.621 442.152 165.56C445.035 165.499 447.733 165.437 450.248 165.376C450.309 166.296 450.34 167.185 450.34 168.044C450.34 168.903 450.34 169.761 450.34 170.62C450.34 172.399 450.309 174.239 450.248 176.14C450.187 178.041 450.095 179.943 449.972 181.844H431.48L431.48 195.644H446.844L446.844 211.284H431.48C431.48 214.351 431.48 217.387 431.48 220.392C431.541 223.397 431.572 226.219 431.572 228.856C431.633 231.493 431.695 233.885 431.756 236.032C431.817 238.117 431.879 239.773 431.94 241H416.576ZM490.571 241.276C488.854 241.215 486.585 241.153 483.763 241.092C480.942 241.092 477.906 241.061 474.655 241C471.466 241 468.246 241 464.995 241C461.806 241 458.985 241 456.531 241C456.593 239.712 456.623 237.995 456.623 235.848C456.685 233.701 456.715 231.248 456.715 228.488C456.715 225.728 456.715 222.753 456.715 219.564C456.715 216.313 456.715 212.971 456.715 209.536C456.715 204.875 456.685 200.213 456.623 195.552C456.623 190.891 456.623 186.567 456.623 182.58C456.623 178.532 456.593 175.036 456.531 172.092C456.531 169.148 456.531 167.063 456.531 165.836C458.923 165.836 461.561 165.836 464.443 165.836C467.326 165.836 470.27 165.836 473.275 165.836C476.281 165.775 479.225 165.713 482.107 165.652C484.99 165.591 487.689 165.529 490.203 165.468C490.203 166.265 490.203 166.971 490.203 167.584C490.265 168.136 490.295 168.933 490.295 169.976C490.295 170.712 490.265 171.601 490.203 172.644C490.203 173.625 490.173 174.668 490.111 175.772C490.111 176.815 490.081 177.888 490.019 178.992C490.019 180.035 489.989 181.016 489.927 181.936H471.435L471.435 192.608H487.535L487.535 206.316H471.435L471.435 216.62H490.203C490.265 218.031 490.326 219.472 490.387 220.944C490.449 222.416 490.479 224.072 490.479 225.912C490.541 227.752 490.571 229.929 490.571 232.444C490.571 234.897 490.571 237.841 490.571 241.276ZM496.463 184.42C496.463 180.495 497.199 177.275 498.671 174.76C500.204 172.184 502.106 170.16 504.375 168.688C506.706 167.155 509.251 166.112 512.011 165.56C514.832 164.947 517.531 164.64 520.107 164.64C520.843 164.64 521.763 164.671 522.867 164.732C524.032 164.793 525.228 164.885 526.455 165.008C527.743 165.131 529.031 165.315 530.319 165.56C531.668 165.744 532.926 166.02 534.091 166.388C534.214 167.983 534.306 169.485 534.367 170.896C534.428 172.245 534.459 173.809 534.459 175.588C534.459 177.367 534.428 179.084 534.367 180.74C534.306 182.335 534.214 183.868 534.091 185.34C533.6 185.279 532.956 185.187 532.159 185.064C531.423 184.941 530.626 184.849 529.767 184.788C528.97 184.727 528.142 184.665 527.283 184.604C526.486 184.543 525.719 184.512 524.983 184.512C522.039 184.512 519.892 184.972 518.543 185.892C517.194 186.812 516.519 188.069 516.519 189.664C516.519 190.584 516.734 191.473 517.163 192.332C517.592 193.129 518.144 193.896 518.819 194.632C519.555 195.368 520.352 196.073 521.211 196.748C522.131 197.423 523.051 198.067 523.971 198.68C525.443 199.723 526.915 200.888 528.387 202.176C529.92 203.403 531.3 204.905 532.527 206.684C533.754 208.401 534.766 210.425 535.563 212.756C536.36 215.025 536.759 217.663 536.759 220.668C536.759 224.593 536.084 227.905 534.735 230.604C533.386 233.303 531.638 235.511 529.491 237.228C527.406 238.884 525.044 240.111 522.407 240.908C519.831 241.644 517.255 242.012 514.679 242.012C513.514 242.012 512.072 241.92 510.355 241.736C508.699 241.613 507.012 241.399 505.295 241.092C503.578 240.847 501.952 240.54 500.419 240.172C498.886 239.743 497.659 239.252 496.739 238.7C496.494 237.596 496.279 236.461 496.095 235.296C495.972 234.131 495.911 232.843 495.911 231.432C495.911 230.451 495.942 229.255 496.003 227.844C496.126 226.433 496.248 224.992 496.371 223.52C496.494 222.048 496.616 220.637 496.739 219.288C496.923 217.939 497.076 216.804 497.199 215.884C497.874 216.252 498.855 216.681 500.143 217.172C501.431 217.601 502.811 218.031 504.283 218.46C505.816 218.889 507.35 219.257 508.883 219.564C510.416 219.871 511.766 220.024 512.931 220.024C514.894 220.024 516.366 219.625 517.347 218.828C518.328 217.969 518.819 216.835 518.819 215.424C518.819 213.891 518.267 212.541 517.163 211.376C516.059 210.149 514.679 208.953 513.023 207.788C511.367 206.623 509.558 205.396 507.595 204.108C505.694 202.759 503.915 201.195 502.259 199.416C500.603 197.637 499.223 195.552 498.119 193.16C497.015 190.707 496.463 187.793 496.463 184.42ZM577.511 182.764H566.931C566.809 188.223 566.717 193.773 566.655 199.416C566.594 204.997 566.563 211.039 566.563 217.54C566.563 221.711 566.563 225.084 566.563 227.66C566.563 230.175 566.563 232.26 566.563 233.916C566.563 235.511 566.563 236.829 566.563 237.872C566.625 238.853 566.655 239.896 566.655 241H551.199C551.261 238.301 551.322 235.511 551.383 232.628C551.445 229.684 551.475 226.525 551.475 223.152C551.537 219.717 551.567 216.037 551.567 212.112C551.629 208.125 551.659 203.74 551.659 198.956C551.659 195.46 551.659 192.424 551.659 189.848C551.659 187.272 551.629 184.911 551.567 182.764H540.987L540.987 165.744H577.511L577.511 182.764ZM636.885 184.42C636.885 187.793 636.272 190.707 635.045 193.16C633.88 195.552 632.377 197.699 630.537 199.6C628.697 201.44 626.704 203.127 624.557 204.66C622.41 206.132 620.417 207.573 618.577 208.984C616.737 210.395 615.142 211.897 613.793 213.492C612.505 215.025 611.8 216.773 611.677 218.736L635.689 217.816C635.812 219.717 635.934 221.68 636.057 223.704C636.241 225.667 636.333 227.629 636.333 229.592C636.333 233.456 636.241 237.259 636.057 241H595.577L595.577 223.704C595.577 220.331 596.098 217.417 597.141 214.964C598.184 212.511 599.502 210.395 601.097 208.616C602.692 206.776 604.378 205.181 606.157 203.832C607.997 202.421 609.714 201.072 611.309 199.784C612.904 198.435 614.222 197.055 615.265 195.644C616.308 194.233 616.829 192.577 616.829 190.676C616.829 189.449 616.584 188.407 616.093 187.548C615.602 186.628 614.958 185.892 614.161 185.34C613.425 184.788 612.597 184.389 611.677 184.144C610.757 183.837 609.898 183.684 609.101 183.684C606.954 183.684 604.9 184.297 602.937 185.524C600.974 186.751 599.41 188.284 598.245 190.124C598.122 188.652 598.03 186.996 597.969 185.156C597.908 183.316 597.877 181.507 597.877 179.728C597.877 177.949 597.908 176.385 597.969 175.036C598.03 173.625 598.122 172.123 598.245 170.528C599.104 169.301 600.208 168.32 601.557 167.584C602.968 166.787 604.409 166.173 605.881 165.744C607.414 165.315 608.886 165.039 610.297 164.916C611.769 164.732 613.026 164.64 614.069 164.64C616.338 164.64 618.792 164.947 621.429 165.56C624.128 166.112 626.612 167.155 628.881 168.688C631.15 170.16 633.052 172.184 634.585 174.76C636.118 177.275 636.885 180.495 636.885 184.42ZM668.381 164.64C672.429 164.64 675.956 165.499 678.961 167.216C682.028 168.933 684.573 171.448 686.597 174.76C688.621 178.011 690.124 182.028 691.105 186.812C692.148 191.535 692.669 196.932 692.669 203.004C692.669 215.577 690.553 225.237 686.321 231.984C682.151 238.669 675.956 242.012 667.737 242.012C663.628 242.012 660.04 241.153 656.973 239.436C653.907 237.719 651.361 235.235 649.337 231.984C647.313 228.672 645.78 224.685 644.737 220.024C643.756 215.301 643.265 209.935 643.265 203.924C643.265 191.044 645.443 181.292 649.797 174.668C654.152 167.983 660.347 164.64 668.381 164.64ZM668.013 218.276C669.608 218.276 670.988 217.816 672.153 216.896C673.38 215.915 674.392 214.596 675.189 212.94C676.048 211.223 676.661 209.26 677.029 207.052C677.459 204.783 677.673 202.36 677.673 199.784C677.673 197.269 677.459 194.939 677.029 192.792C676.661 190.645 676.079 188.775 675.281 187.18C674.484 185.585 673.472 184.328 672.245 183.408C671.08 182.488 669.731 182.028 668.197 182.028C666.603 182.028 665.192 182.488 663.965 183.408C662.739 184.328 661.696 185.585 660.837 187.18C659.979 188.775 659.335 190.676 658.905 192.884C658.476 195.092 658.261 197.484 658.261 200.06C658.261 202.575 658.476 204.936 658.905 207.144C659.335 209.352 659.948 211.284 660.745 212.94C661.604 214.596 662.616 215.915 663.781 216.896C665.008 217.816 666.419 218.276 668.013 218.276ZM740.335 184.42C740.335 187.793 739.721 190.707 738.495 193.16C737.329 195.552 735.827 197.699 733.987 199.6C732.147 201.44 730.153 203.127 728.007 204.66C725.86 206.132 723.867 207.573 722.027 208.984C720.187 210.395 718.592 211.897 717.243 213.492C715.955 215.025 715.249 216.773 715.127 218.736L739.139 217.816C739.261 219.717 739.384 221.68 739.507 223.704C739.691 225.667 739.783 227.629 739.783 229.592C739.783 233.456 739.691 237.259 739.507 241H699.027L699.027 223.704C699.027 220.331 699.548 217.417 700.591 214.964C701.633 212.511 702.952 210.395 704.547 208.616C706.141 206.776 707.828 205.181 709.607 203.832C711.447 202.421 713.164 201.072 714.759 199.784C716.353 198.435 717.672 197.055 718.715 195.644C719.757 194.233 720.279 192.577 720.279 190.676C720.279 189.449 720.033 188.407 719.543 187.548C719.052 186.628 718.408 185.892 717.611 185.34C716.875 184.788 716.047 184.389 715.127 184.144C714.207 183.837 713.348 183.684 712.551 183.684C710.404 183.684 708.349 184.297 706.387 185.524C704.424 186.751 702.86 188.284 701.695 190.124C701.572 188.652 701.48 186.996 701.419 185.156C701.357 183.316 701.327 181.507 701.327 179.728C701.327 177.949 701.357 176.385 701.419 175.036C701.48 173.625 701.572 172.123 701.695 170.528C702.553 169.301 703.657 168.32 705.007 167.584C706.417 166.787 707.859 166.173 709.331 165.744C710.864 165.315 712.336 165.039 713.747 164.916C715.219 164.732 716.476 164.64 717.519 164.64C719.788 164.64 722.241 164.947 724.879 165.56C727.577 166.112 730.061 167.155 732.331 168.688C734.6 170.16 736.501 172.184 738.035 174.76C739.568 177.275 740.335 180.495 740.335 184.42ZM760.515 183.316C760.392 184.236 760.3 185.34 760.239 186.628C760.239 187.916 760.239 188.989 760.239 189.848C760.239 191.749 760.331 193.559 760.515 195.276C761.864 194.969 763.183 194.724 764.471 194.54C765.82 194.356 767.139 194.264 768.427 194.264C771.616 194.264 774.56 194.847 777.259 196.012C779.958 197.177 782.288 198.772 784.251 200.796C786.214 202.82 787.716 205.212 788.759 207.972C789.863 210.671 790.415 213.553 790.415 216.62C790.415 219.809 789.802 222.937 788.575 226.004C787.41 229.009 785.692 231.708 783.423 234.1C781.154 236.492 778.363 238.424 775.051 239.896C771.8 241.307 768.09 242.012 763.919 242.012C762.815 242.012 761.496 241.951 759.963 241.828C758.491 241.705 756.988 241.429 755.455 241C753.922 240.571 752.45 239.988 751.039 239.252C749.69 238.455 748.586 237.443 747.727 236.216C747.604 234.56 747.512 233.057 747.451 231.708C747.451 230.359 747.451 228.795 747.451 227.016C747.451 225.176 747.451 223.643 747.451 222.416C747.512 221.189 747.604 219.871 747.727 218.46C749.138 219.932 750.916 221.097 753.063 221.956C755.21 222.815 757.51 223.244 759.963 223.244C763.398 223.244 766.127 222.477 768.151 220.944C770.175 219.349 771.187 217.264 771.187 214.688C771.187 212.112 770.144 210.119 768.059 208.708C766.035 207.297 763.214 206.592 759.595 206.592C757.142 206.592 754.903 206.929 752.879 207.604C750.855 208.217 749.199 209.137 747.911 210.364C748.095 202.943 748.187 195.521 748.187 188.1C748.187 184.481 748.156 180.74 748.095 176.876C748.095 173.012 748.034 169.301 747.911 165.744L787.563 165.744C787.686 167.277 787.778 168.78 787.839 170.252C787.9 171.724 787.931 173.227 787.931 174.76C787.931 176.355 787.9 177.919 787.839 179.452C787.778 180.985 787.686 182.549 787.563 184.144L760.515 183.316Z" fill="white"/>
<path d="M151 0C234.395 0 302 67.605 302 151C302 234.395 234.395 302 151 302C67.605 302 0 234.395 0 151C0 67.605 67.605 0 151 0ZM176.91 75.5146C173.354 73.3813 171.272 78.5921 169.922 80.7148C164.739 88.8598 164.427 98.9568 162.121 108.179C160.964 112.807 159.544 120.262 158.957 124.96C158.37 129.657 152.277 128.653 150.449 124.96C148.15 120.312 147.451 114.196 146.196 108.341C145.057 103.022 144.495 97.6686 142.459 92.5781C141.127 89.2472 137.769 83.157 133.847 82.5029C130.936 82.0172 131.084 84.4477 131.084 86.7275C131.084 90.5893 131.106 94.4976 131.733 98.2646C133.038 106.088 136.171 114.532 138.884 121.991C139.421 123.47 139.969 124.973 140.671 126.379C141.06 127.155 141.961 128.636 141.972 128.653C141.972 128.653 136.242 137.863 132.059 135.642C130.829 134.989 129.911 133.657 129.459 133.203C127.13 130.874 124.799 128.545 122.471 126.217C119.337 123.083 114.958 120.744 111.421 118.091C106.317 114.263 101.033 110.725 95.6572 107.365C92.1055 105.146 86.9779 101.397 82.6562 104.277C81.2499 105.215 82.7858 107.486 83.4697 108.341C85.7597 111.204 89.6948 115.67 92.7324 117.604C99.5883 121.966 105.469 128.24 112.07 133.042C116.281 136.104 120.567 139.254 124.583 142.467C125.364 143.093 127.671 144.092 127.671 144.092C126.996 146.57 127.769 153.726 126.21 155.132C122.909 158.108 106.756 155.423 102.32 155.793C98.2657 156.13 94.1949 156.235 90.1328 156.604C85.851 156.994 82.296 157.09 78.2695 158.88C76.7683 159.547 75.0049 161.591 76.8066 162.942C79.0563 164.63 84.0542 164.363 86.7197 164.567C96.5867 165.327 106.661 163.917 116.62 163.917C120.732 163.917 125.572 161.473 129.621 162.942C133.521 164.357 132.465 170.987 131.084 172.368C127.456 175.996 123.364 180.485 119.383 183.743C114.579 187.675 110.921 193.343 106.546 197.719C104.309 199.956 101.508 204.368 101.508 207.632C101.508 208.461 101.122 211.295 102.32 211.694C105.278 212.68 109.451 207.325 111.096 205.682C117.356 199.42 123.947 193.928 129.621 186.993C131.529 184.661 133.21 182.12 134.983 179.681C135.549 178.903 136.075 178.204 136.608 177.405C136.688 177.287 137.422 176.268 137.422 176.268C138.213 177.06 139.299 178.604 140.671 179.192C142.131 179.818 145.709 181.306 145.709 181.306C145.707 181.318 145.444 183.122 145.384 183.419C144.843 186.124 144.746 188.956 144.246 191.706C142.807 199.618 141.435 207.547 139.858 215.432C139.327 218.083 139.244 222.941 141.321 225.019C146.321 230.019 153.862 196.733 154.159 193.168C154.379 190.53 154.809 188.038 154.809 185.368V182.605C154.809 182.605 161.705 181.757 162.121 183.419C165.148 195.513 163.708 208.575 170.735 219.819C172.124 222.04 173.352 226.08 176.26 226.807C177.687 227.163 177.885 225.595 177.885 224.532C177.885 221.615 177.809 218.796 177.397 215.919C176.041 206.416 173.274 196.32 170.41 187.155C169.975 185.765 166.403 178.352 168.622 177.243C169.413 176.848 171.984 175.753 173.822 176.268C177.884 177.405 196.544 196.433 200.798 200.156C203.064 202.138 208.19 206.88 211.687 206.007C214.782 205.232 212.023 201.527 210.873 199.994C206.804 194.568 202.564 188.847 197.06 184.719C192.709 181.455 183.572 172.368 181.887 170.542C180.201 168.716 183.377 161.414 183.572 160.829C183.681 160.506 185.315 160.14 185.686 160.018C188.027 159.237 190.186 159.129 192.673 158.88C199.966 158.15 208.304 156.934 213.277 156.162C216.255 155.699 221.07 156.096 223.963 155.132C224.5 154.953 225.813 153.172 225.336 152.217C223.713 148.97 220.086 148.622 216.724 148.317C208.967 147.612 201.072 148.023 193.323 149.13C190.829 149.486 188.327 149.692 185.848 150.104C185.536 150.158 183.573 151.327 183.572 150.43C183.572 144.092 181.887 140.768 181.887 138.404C181.887 136.04 184.971 133.624 186.66 132.229C194.872 125.447 199.695 121.992 205.538 115.312C208.622 111.788 212.808 108.611 214.587 105.383C214.989 104.655 217.42 100.752 214.448 99.5654C211.683 98.4616 208.08 101.592 205.836 102.815C199.236 106.416 192.326 112.355 187.473 118.091C186.046 119.777 185.067 121.622 183.409 123.129C180.891 125.418 178.982 128.206 176.585 130.604C176.357 130.832 173.822 132.717 173.822 132.717C172.439 131.334 167.345 129.954 168.134 126.867C168.622 124.96 170.492 118.495 171.222 116.304C173.716 108.823 175.479 100.579 177.397 92.9033C178.466 88.6311 179.166 84.3253 178.535 79.9023C178.346 78.5777 178.262 76.3256 176.91 75.5146Z" fill="white"/>
</svg>
