<svg width="24" height="24" viewBox="0 0 24 24" fill="none" xmlns="http://www.w3.org/2000/svg">
<path d="M10.787 4.34633C10.7482 4.30755 10.7014 4.27775 10.6499 4.25902C10.5984 4.24028 10.5434 4.23308 10.4887 4.2379C10.4341 4.24273 10.3812 4.25947 10.3338 4.28695C10.2864 4.31443 10.2455 4.35198 10.2142 4.39695C9.42308 5.52602 8.99915 6.87145 9.0001 8.25008C9.00078 8.54542 9.02051 8.8404 9.05916 9.1332L2.5426 18.0207C2.3293 18.3092 2.22698 18.6648 2.25435 19.0225C2.28173 19.3802 2.43696 19.7162 2.69166 19.9688L4.03135 21.3085C4.28402 21.5632 4.61993 21.7184 4.97765 21.7458C5.33537 21.7732 5.69099 21.6709 5.97947 21.4576L14.8679 14.9391C15.1604 14.9784 15.455 14.9987 15.7501 15.0001C17.1282 15.0014 18.4733 14.5781 19.6023 13.7879C19.6473 13.7565 19.6848 13.7157 19.7123 13.6683C19.7398 13.6208 19.7565 13.5679 19.7613 13.5133C19.7662 13.4587 19.759 13.4037 19.7402 13.3522C19.7215 13.3006 19.6917 13.2538 19.6529 13.2151L10.787 4.34633ZM11.0317 14.0288L9.53166 15.5288C9.46271 15.6014 9.37993 15.6594 9.28819 15.6995C9.19646 15.7396 9.09763 15.7609 8.99753 15.7622C8.89743 15.7635 8.79809 15.7447 8.70536 15.707C8.61262 15.6693 8.52838 15.6134 8.4576 15.5426C8.38681 15.4718 8.33091 15.3876 8.29319 15.2948C8.25548 15.2021 8.23671 15.1027 8.23799 15.0026C8.23927 14.9025 8.26058 14.8037 8.30066 14.712C8.34073 14.6202 8.39877 14.5375 8.47135 14.4685L9.97135 12.9685C10.1131 12.8338 10.302 12.7598 10.4975 12.7623C10.6931 12.7648 10.88 12.8436 11.0183 12.9819C11.1566 13.1202 11.2354 13.3071 11.2379 13.5026C11.2404 13.6982 11.1664 13.887 11.0317 14.0288ZM21.2879 12.1013C21.2566 12.1465 21.2157 12.1841 21.1682 12.2117C21.1206 12.2393 21.0676 12.2561 21.0129 12.2609C20.9581 12.2658 20.903 12.2585 20.8514 12.2397C20.7998 12.2208 20.7529 12.1909 20.7142 12.152L11.8482 3.28602C11.8093 3.24725 11.7793 3.2004 11.7605 3.14878C11.7417 3.09716 11.7344 3.04203 11.7392 2.98729C11.7441 2.93255 11.7609 2.87955 11.7884 2.83202C11.816 2.7845 11.8537 2.74361 11.8988 2.71227C13.1975 1.80612 14.7735 1.38588 16.3509 1.52518C17.9283 1.66448 19.4063 2.35443 20.526 3.47414C21.6457 4.59385 22.3357 6.07189 22.475 7.64926C22.6143 9.22663 22.1941 10.8027 21.2879 12.1013Z" fill="#AA00CC"/>
</svg>
