<svg width="1000" height="2000" viewBox="0 0 1000 2000" fill="none" xmlns="http://www.w3.org/2000/svg">
<g clip-path="url(#clip0_185_4712)">
<path d="M-1040.02 -549.954L-1040.02 2529.21L2039.15 2529.21L2039.15 -549.954L-1040.02 -549.954Z" fill="white"/>
<path d="M-1039.95 1514.33C-1030.45 1488.74 -1028.78 1460.93 -1025.64 1434.37C-1012.94 1327 -983.705 1221.09 -991.595 1111.83C-996.214 1047.45 -1006.52 983.487 -1011.8 919.132C-1014.11 890.588 -994.497 874.8 -969.241 864.154C-943.345 853.238 -908.327 844.747 -914.532 807.882C-922.376 761.294 -961.273 748.177 -1003.2 743.45C-1009.25 742.765 -1015.27 741.634 -1021.31 740.71C-1017.75 735.491 -1014.89 729.594 -1010.53 725.168C-942.413 655.956 -848.252 662.045 -807.792 757.26C-746.517 901.512 -631.364 981.185 -509.506 1060.6C-460.277 1092.68 -418.955 1137.08 -449.562 1201.15C-481.162 1267.36 -546.556 1254.95 -600.256 1242.76C-743.953 1210.11 -886.765 1250.59 -925.878 1342.63C-961.158 1425.63 -966.208 1515.97 -988.27 1602.18C-998.801 1643.35 -1013.87 1682.5 -1039.95 1715.99L-1039.95 1878.11C-1014.2 1830.63 -987.823 1783.42 -964.345 1734.86C-926.225 1655.99 -915.34 1569.36 -896.318 1484.84C-867.42 1356.44 -737.318 1297.97 -594.114 1323.59C-406.061 1357.23 -304.449 1491.11 -200.065 1627.28C-108.637 1746.6 -7.68618 1852.9 158.997 1850.77C264.058 1849.43 351.214 1803.54 424.282 1730.95C534.363 1621.64 655.335 1635.55 784.199 1691.22C912.438 1746.64 1043.24 1787.54 1185.1 1736.9C1241.47 1716.77 1269.24 1671.05 1301.34 1627.38C1357.29 1551.32 1411.12 1549.2 1455.3 1632.46C1509.45 1734.58 1590.23 1781.24 1700.6 1801.95C1838.34 1827.79 1882.09 1943.12 1817.31 2077.75C1771.77 2172.44 1696.11 2249.03 1658.46 2348.06C1635.29 2409.01 1635.57 2469.38 1658.46 2529.17L1748.3 2529.17C1663.15 2351.14 1773.27 2226.7 1876.02 2100.58C1938.37 2024.02 1966.16 1940.81 1944.09 1840.58C1936.65 1806.79 1925.93 1745.9 1981.47 1745.56C2036.64 1745.22 2032.75 1797.72 2039.21 1838.76L2039.21 1621.6C1945.16 1627.29 1859.49 1669.69 1767.55 1684.9C1639.91 1706 1554.14 1640.7 1481.75 1548.07C1457.11 1516.51 1432.66 1484.36 1412.34 1449.99C1390.69 1413.39 1366.42 1365.43 1416.61 1339.91C1468.37 1313.53 1491.14 1365.85 1510.73 1402.11C1548.51 1472.07 1561.89 1559.44 1658.72 1582.36C1756.23 1605.46 1845.78 1569.74 1937.92 1551.15C1971.43 1544.36 2005.4 1540 2039.21 1534.8L2039.21 1451.66C2003.98 1463.25 1968.82 1475.08 1933.43 1486.18C1839.77 1515.59 1743.89 1555.15 1655.7 1477.33C1596.68 1425.25 1562.46 1348.86 1496.83 1302.67C1406.92 1239.37 1321.37 1173.58 1278.66 1066.58C1268.77 1041.79 1258.8 1006.53 1226.07 1008.5C1190.59 1010.66 1175.91 1046.08 1160.44 1074.28C1112.89 1161.02 1127.34 1259.54 1108.52 1351.75C1098.87 1398.98 1086.46 1448.06 1034.17 1465.34C994.29 1478.52 961.605 1453.43 941.274 1423.45C901.057 1364.25 864.123 1302.9 830.64 1239.65C750.02 1086.92 651.525 951.448 489.969 875.385C446.691 855.009 399.01 838.689 352.492 866.07C326.981 881.089 317.335 908.948 321.277 938.477C328.513 992.778 359.489 1036.56 387.979 1081.25C447.114 1174 518.128 1264.41 524.902 1377.62C532.13 1498.48 447.792 1588.23 390.358 1684.67C341.691 1766.37 266.121 1816.03 166.726 1800.55C-16.3925 1772.02 -142.03 1658.05 -239.786 1509.42C-270.716 1462.4 -299.214 1408.09 -269.208 1351.4C-241.495 1299.14 -186.286 1306.51 -140.013 1316.64C-41.0258 1338.3 17.8478 1301.75 71.7871 1216.27C141.068 1106.54 199.218 1104.42 277.452 1193.74C334.186 1258.52 393.36 1333.84 377.618 1423.38C353.477 1560.68 246.476 1632.07 97.8215 1633.9C78.6922 1634.14 53.1042 1629.9 44.6365 1654.94C41.9499 1662.86 49.4169 1678.3 56.9532 1684.87C87.0828 1711.04 124.141 1721.39 163.377 1724.03C272.826 1731.43 322.046 1655.02 364.708 1574.59C398.125 1511.59 455.413 1454.51 442.457 1375.88C425.298 1272 341.699 1200.95 299.553 1108.58C262.819 1028.09 212.074 1016.53 143.016 1072.5C111.886 1097.72 84.0498 1128.95 61.0023 1161.86C-28.5168 1289.65 -91.1316 1304.64 -205.646 1220.58C-264.966 1177.04 -318.143 1120.56 -383.629 1090.91C-533.739 1022.96 -644.366 928.97 -702.824 767.599C-765.246 595.342 -923.715 546.053 -1039.95 647.765L-1039.95 1514.33ZM422.65 1014.81C400.403 992.255 368.934 953.996 401.404 929.147C448.053 893.46 486.012 940.802 517.096 969.646C649.431 1092.41 739.073 1248.44 842.81 1393.61C883.81 1450.99 933.23 1504.36 1005.45 1521.3C1071.65 1536.84 1093.14 1482.47 1118.01 1437.01C1125.42 1423.46 1127.67 1400.41 1145.97 1402.81C1152.61 1403.67 1159.43 1432.18 1159.68 1448.16C1161.02 1535.22 1108.49 1590.91 1002.86 1590.91C901.168 1583.21 819.324 1502.96 754.739 1408.75C656.867 1265.95 543.731 1137.55 422.65 1014.81ZM546.217 1257.21C544.855 1252.84 544.539 1248.13 543.739 1243.58C548.588 1245.2 554.077 1245.85 558.18 1248.59C645.775 1306.81 687.274 1402.83 746.994 1483.27C836.29 1603.51 1007.35 1675.31 1108.37 1624.05C1184.04 1585.67 1215.37 1520.85 1215.24 1426.22C1215.79 1378.49 1195.99 1322.9 1179.93 1266.45C1173.09 1242.49 1158.73 1210.36 1186.67 1196.93C1213.91 1183.85 1230.21 1214.03 1241.57 1235.36C1330.3 1401.91 1306.76 1657.09 1090.28 1709.55C961.582 1740.73 853.888 1682.4 758.256 1604.29C647.884 1514.06 587.925 1390.59 546.256 1257.21L546.217 1257.21Z" fill="#E87100"/>
<path d="M2039.21 1361.41L2039.21 1298.85C1991.73 1338.01 1940.24 1368.44 1876.71 1376.34C1797.6 1386.2 1724.61 1369.06 1670.74 1311.57C1575.12 1209.51 1445.64 1144.96 1362.15 1030.71C1299.66 945.197 1315.89 853.169 1356.08 766.59C1403.8 663.7 1395.04 566.19 1349.46 467.387C1346.62 461.229 1345.95 454.07 1344.26 447.373C1351.19 449.166 1358.53 450.006 1364.96 452.9C1441.47 487.287 1471.47 622.254 1427.23 725.322C1382.91 828.604 1325.17 931.972 1414.91 1040.77C1476.15 1114.98 1561.8 1158.28 1636.14 1215.93C1692.65 1259.76 1740.28 1320.62 1818.66 1323.8C1922.81 1328.08 1990.5 1272.23 2039.18 1189.29L2039.18 772.949C2025.6 812.285 2011.47 851.467 2000.13 891.427C1978.58 967.113 2012.19 1042.31 2005.4 1117.93C1998.77 1191.78 1959.45 1246.38 1895.52 1281.86C1856.26 1303.64 1815.53 1302.96 1776.75 1276.52C1761.53 1266.14 1752.12 1252.65 1754.8 1234.95C1757.96 1213.86 1775.58 1205.23 1794.31 1200.61C1921.33 1169.37 1948.07 1132.87 1913.14 1006.89C1890.33 924.605 1933.28 863.607 1960.28 797.297C2018.97 653.184 1927.06 510.804 1772.3 510.165C1734.96 510.003 1697.53 507.578 1660.35 504.083C1634.44 501.651 1604.67 496.601 1609.68 461.044C1614.3 428.536 1644.33 416.55 1671.46 417.551C1821.54 423.086 1995.89 451.868 2039.21 627.958L2039.21 497.148C1924.22 406.243 1792.27 367.345 1646.29 381.61C1591.73 386.936 1540.67 417.02 1550.13 481.413C1560.39 551.172 1627.04 541.957 1677.15 549.347C1767.88 562.711 1870.41 549.786 1921.27 652.399C1954.86 720.141 1931.79 784.849 1889.63 839.859C1853.27 887.301 1839.72 932.934 1846.18 994.41C1860.46 1130.28 1792.93 1178.98 1649.98 1146.06C1519.45 1115.98 1407.17 1010.03 1409.18 916.545C1410.72 846.756 1459.78 795.527 1484.14 734.613C1531.65 615.857 1480.22 520.187 1408.7 430.13C1300.05 293.322 1212.56 146.846 1196.93 -32.3921C1195.48 -49.0273 1197.95 -68.8032 1216.36 -72.5983C1236.96 -76.8398 1242.7 -56.2556 1248.07 -41.0368C1277.61 42.5241 1296.1 130.088 1340.77 208.145C1407.64 324.984 1509.6 338.047 1631.61 318.34C1775.5 295.093 1912.35 327.709 2039.21 399.992L2039.21 331.219C1900.94 275.794 1754.39 284 1609.61 277.08C1525.33 273.061 1444.39 254.856 1381.51 193.596C1251.49 66.9188 1256.95 -123.52 1390.71 -264.23C1408.9 -283.367 1445.63 -308.539 1422.12 -336.591C1398.34 -364.996 1368.09 -336.645 1344.2 -319.355C1327.88 -307.554 1311.24 -295.884 1296.53 -282.236C1218.46 -209.752 1126.97 -144.866 1139.2 -18.659C1146.62 57.9507 1194.05 117.748 1226.13 183.796C1295.56 326.816 1205.99 471.113 1046.57 471.113C849.408 471.113 710.383 269.151 752.968 65.5562C782.443 -75.3156 854.719 -200.114 884.01 -339.955C900.499 -418.681 846.69 -513.458 768.002 -533.049C702.085 -549.492 646.313 -503.62 623.566 -419.259C591.235 -299.587 545.817 -188.029 440.933 -109.217C330.622 -26.3569 326.85 3.24932 408.379 120.365C476.12 217.659 506.912 317.663 464.104 434.979C424.96 542.265 453.719 586.821 567.725 587.844C714.055 589.161 808.039 656.587 859.877 790.153C904.463 905.045 1012.92 965.204 1130.29 936.36C1192.9 920.964 1217.41 870.774 1204.05 812.169C1192.13 759.87 1145.32 779.068 1111.04 786.389C1017.98 806.304 934.839 799.337 874.449 713.898C836.237 659.835 795.03 608.706 730.575 583.033C681.462 563.496 632.565 542.681 593.783 505.608C508.198 423.802 522.593 313.268 512.247 210.57C490.207 -8.27448 593.798 -189.16 693.148 -370.623C712.5 -405.964 740.213 -448.195 786.893 -419.89C831.164 -393.055 816.314 -346.282 794.244 -309.525C720.691 -186.989 643.242 -67.9718 614.883 77.0184C590.681 200.886 621.241 326.315 699.706 383.804C850.67 494.423 1021.48 523.136 1203.37 517.139C1314.92 513.475 1365.28 577.606 1329.8 683.414C1272.96 852.899 1276.9 1007.5 1418.64 1135.56C1492.01 1201.88 1578.69 1253.72 1638.47 1334.81C1690.71 1405.67 1757.42 1438.69 1846.89 1424.88C1914.97 1414.46 1976.4 1386.26 2039.21 1361.41Z" fill="#E87100"/>
<path d="M-792.912 1577.26C-843.819 1724.67 -942.159 1846.68 -1006.91 1986.42C-1018.46 2011.31 -1029.24 2036.55 -1040.02 2061.8L-1040.02 2165.93C-1039.25 2160.54 -1038.22 2155.28 -1037.23 2150.22C-1012.48 2024.48 -944.084 1924.87 -852.402 1837.04C-705.372 1696.17 -382.675 1726.77 -266.429 1893.13C-201.851 1985.54 -133.355 2075.38 -63.0496 2163.54C-42.3268 2189.52 -0.696427 2213.68 24.9376 2183.17C51.48 2151.54 4.72287 2138.3 -14.5527 2119.47C-49.6783 2085.16 -89.5767 2053.91 -117.443 2014.33C-225.006 1861.52 -342.353 1723.83 -539.289 1686.02C-574.068 1679.35 -610.218 1664.19 -598.417 1619.94C-589.279 1585.68 -554.362 1583.71 -524.286 1589.92C-359.704 1623.79 -248.923 1733.19 -148.458 1857.65C-91.1162 1928.62 -47.1457 2014.96 45.4525 2048.83C121.816 2076.81 196.131 2037.02 271.887 2033.48C334.548 2030.56 403.821 2042.6 456.806 2001.74C496.304 1971.28 518.566 1918.04 558.711 1889.02C666.482 1811.09 788.024 1837.72 903.124 1866.99C1029.85 1899.22 1153.45 1927.97 1285.47 1897.61C1408.75 1869.27 1532.37 1871.01 1649.78 1927.67C1670.2 1937.53 1689.19 1952.91 1683.75 1978.61C1678.12 2005.19 1654.49 2008.63 1631.35 2008.52C1536.08 2008.06 1443.26 1979.49 1346.52 1989.27C1255.69 1998.46 1188.82 2059.13 1205.26 2128.29C1233.83 2248.47 1171.22 2381.1 1056.28 2423.89C942.221 2466.38 817.646 2442.66 700.091 2468.48C644.666 2480.65 587.702 2488.84 544.701 2529.15L725.602 2529.15C786.416 2506.83 850.955 2501.44 914.424 2500.11C1114.29 2496.02 1243.23 2405.55 1303.94 2212.46C1342.77 2088.87 1425.87 2046.87 1593.28 2054.57C1652.82 2057.3 1723.04 2076.89 1739.62 1996.66C1754.94 1922.49 1686.08 1902.66 1633.34 1880.73C1558.82 1849.75 1497.24 1802.71 1438.53 1747.94C1378.99 1692.4 1335.68 1750.97 1292.23 1781.75C1148.18 1883.83 992.011 1868.59 848.314 1801.69C682.34 1724.42 559.057 1757.74 431.449 1877.72C302.232 1999.21 99.7229 2014.42 -23.9441 1922.53C-120.507 1850.79 -175.732 1738.91 -260.932 1655.25C-362.406 1555.61 -455.22 1438.33 -608.67 1420.09C-718.404 1407.09 -762.975 1490.56 -792.912 1577.26Z" fill="#E87100"/>
<path d="M1013.63 1347.5C1021.56 1345.96 1030.56 1331.19 1032.56 1321.16C1049.11 1236.95 1046.19 1149.31 1080.89 1068.1C1093.25 1039.2 1072.08 1024.62 1046.15 1022.31C920.221 1011.06 830.263 955.266 787.101 830.259C761.898 757.252 725.202 684.692 640.84 667.525C581.843 655.524 519.29 660.097 458.292 658.989C380.397 657.564 343.316 616.973 357.796 541.911C370.613 475.509 396.639 410.484 400.904 343.836C410.141 200.547 312.971 113.283 213.483 33.2711C166.356 -4.63342 113.302 1.8944 72.1566 49.9063C44.9753 81.6217 54.8748 115.562 76.3905 145.691C102.071 181.656 139.175 212.063 155.871 251.422C242.689 455.979 201.128 654.601 97.4752 837.088C5.17719 999.606 -120.461 1035.02 -244.397 961.024C-359.096 892.513 -392.197 774.734 -430.902 659.404C-482.625 505.184 -554.893 369.916 -732.807 328.209C-828.792 305.7 -909.551 257.388 -926.248 150.241C-941.343 53.4089 -877.12 -7.92038 -813.812 -68.5723C-760.288 -119.856 -699.975 -167.421 -673.364 -239.966C-626.922 -366.589 -690.299 -460.596 -766.185 -549.985L-876.758 -549.985C-838.053 -523.481 -797.623 -499.078 -770.08 -459.149C-688.482 -340.871 -707.804 -239.836 -823.689 -150.555C-902.269 -90.0263 -977.401 -25.002 -1040 52.6699L-1040 343.266C-858.837 300.212 -718.997 381.279 -596.993 504.776C-519.09 583.634 -490.438 692.983 -439.408 788.521C-371.736 915.221 -284.826 1022.08 -133.431 1050.37C-22.4121 1071.12 31.6272 992.385 87.645 917.654C128.19 863.561 156.418 794.487 235.253 782.556C247.785 780.662 261.641 787.474 274.881 790.253C271.887 796.496 270.363 804.371 265.644 808.667C254.774 818.482 241.911 826.056 230.58 835.402C159.051 894.391 106.197 969.877 48.501 1041.12C-30.3719 1138.53 -125.734 1135.54 -262.787 1057.73C-442.149 955.913 -531.375 786.497 -623.928 617.458C-691.969 493.183 -883.909 377.514 -1039.96 445.795L-1039.96 542.273C-858.991 455.356 -668.46 552.041 -607.793 730.633C-581.096 809.229 -567.763 895.738 -492.801 949.562C-405.553 1012.24 -300.353 1046.05 -220.618 1121.36C-182.898 1157.01 -142.554 1195.12 -84.619 1188.94C-8.07095 1180.78 22.8977 1113.72 66.1831 1063.92C146.241 971.801 212.544 859.742 335.425 821.099C501.046 769.015 627.515 857.194 743.13 961.447C852.441 1059.98 899.398 1199.11 972.674 1321.08C981.635 1336 994.567 1351.25 1013.63 1347.5ZM653.588 846.856C562.375 796.466 462.98 778.622 361.267 763.403C240.703 745.367 184.485 655.855 233.274 537.084C297.937 379.685 280.077 248.751 156.295 131.735C142.292 118.502 121.847 90.9362 142.131 79.4894C177.187 59.698 206.901 90.4127 232.196 112.313C361.229 223.987 382.483 355.475 315.48 511.789C289.746 571.833 253.897 655.578 352.892 692.267C403.46 711.011 461.702 709.102 516.48 716.53C582.013 719.694 650.74 715.584 701.323 768.407C722.754 790.785 743.523 820.945 724.894 849.774C706.65 878.071 676.081 859.273 653.588 846.856Z" fill="#E87100"/>
<path d="M-125.672 893.059C-105.765 872.39 -159.335 845.509 -182.367 823.986C-231.926 777.667 -260.594 724.028 -232.897 657.172C-206.931 594.48 -191.636 533.605 -217.293 467.18C-270.101 330.449 -364.993 213.325 -391.558 63.2776C-414.275 -65.0312 -343.7 -212.308 -219.71 -252.206C-122.516 -283.506 -18.7943 -258.018 79.739 -282.374C237.208 -321.318 367.995 -394.487 435.737 -549.985L362.607 -549.985C304.949 -432.476 198.025 -379.091 79.1694 -349.531C-81.5939 -309.563 -246.607 -286.539 -408.347 -338.708C-507.581 -370.716 -559.111 -454.885 -591.558 -549.985L-654.619 -549.985C-491.616 -331.595 -545.17 -159.454 -731.598 2.31783C-830.055 87.7647 -830.417 176.745 -709.598 224.695C-528.843 296.424 -397.509 407.575 -342.492 599.63C-316.157 691.582 -314.456 794.965 -234.259 864.623C-202.828 891.92 -157.28 925.875 -125.672 893.059ZM-307.281 546.26C-373.622 420.014 -479.769 321.943 -551.652 199.854C-577.301 156.299 -589.934 108.249 -590.234 51.2843C-587.085 -30.8371 -555.655 -109.941 -507.027 -182.347C-496.635 -197.82 -481.016 -219.297 -457.268 -206.742C-425.899 -190.184 -429.386 -159.462 -440.132 -133.281C-520.121 61.5995 -427.815 214.665 -322.862 366.314C-287.452 417.405 -251.849 470.39 -257.468 538.316C-258.661 552.703 -265.235 565.775 -276.859 565.682C-287.282 565.582 -302.239 555.867 -307.281 546.26Z" fill="#E87100"/>
<path d="M54.4972 754.389C117.351 607.097 94.6495 451.437 82.7562 298.38C80.339 267.218 51.495 234.487 13.8907 240.599C-11.0044 244.648 -7.16304 278.319 -2.37494 298.072C24.5062 408.922 41.2261 520.542 23.2206 634.294C17.886 668.011 21.858 719.918 -26.1616 719.802C-76.1519 719.679 -72.3491 670.474 -69.2314 635.179C-59.9939 530.811 -48.6087 427.943 -84.3963 324.653C-159.443 108.056 -104.018 -19.3056 118.829 -73.1218C382.051 -136.691 519.12 -297.708 567.94 -549.985L525.948 -549.985C525.701 -548.272 525.322 -546.582 524.817 -544.927C457.075 -332.288 205.877 -162.525 -52.1652 -151.741C-134.679 -148.284 -217.155 -132.765 -262.626 -53.2996C-314.649 37.6128 -275.343 122.798 -226.584 199.523C-136.265 341.665 -50.6487 479.635 -124.564 660.59C-144.579 709.633 -121.408 772.895 -64.1124 799.391C-14.7841 822.2 35.06 799.937 54.4972 754.389Z" fill="#E87100"/>
<path d="M1146.68 364.736C1203.15 325.977 1210.09 244.718 1159.9 173.974C1118.96 116.239 1062.29 68.0734 1057.23 -9.69864C1049.3 -131.688 1124.58 -209.644 1202.4 -286.824C1308.19 -391.777 1314.48 -422.438 1249.28 -549.985L1146.25 -549.985C1206.3 -429.012 1129.32 -339.062 1073.02 -242.691C973.128 -71.5206 985.022 38.8136 1114.03 205.881C1132.05 229.214 1157.25 260.937 1129.91 284.916C1096.81 313.937 1059.19 289.15 1033.9 263.446C920.459 148.132 917.549 7.99889 945.762 -139.686C964.699 -238.812 1031.46 -318.008 1055.07 -414.663C1067.25 -464.307 1050.36 -507.738 1028.21 -549.985L933.569 -549.985C972.004 -502.804 1003.3 -450.166 984.321 -388.282C953.991 -289.426 907.342 -195.372 879.706 -95.923C841.386 41.9313 811.965 182.649 905.61 314.376C958.202 388.391 1075.05 413.895 1146.68 364.736Z" fill="#E87100"/>
<path d="M425.345 2529.18C446.806 2509.48 467.545 2488.65 491.739 2473.23C619.132 2392.05 766.147 2389.66 909.513 2375.24C1039.99 2362.15 1130.62 2252.98 1111.86 2126.6C1095.92 2019.17 989.217 1939.83 861.278 1935.25C779.61 1932.33 696.665 1914.85 623.196 1966.61C583.621 1994.48 582.521 2053.5 538.404 2077.94C474.365 2113.41 404.237 2091.36 336.965 2095.87C248.716 2101.79 169.989 2125.96 118.105 2203.13C41.6187 2316.89 51.7953 2392.94 162.561 2529.15L425.345 2529.18ZM114.249 2399.09C91.7939 2315.95 128.628 2251.9 193.175 2202.75C250.609 2159.02 319.252 2151.61 388.956 2150.98C467.822 2150.68 554.138 2173.98 613.651 2100.18C647.522 2058.19 654.812 1997.74 720.298 1978.91C853.341 1940.65 1014.14 2012.01 1046.47 2129.24C1071.79 2221.05 997.585 2306.03 869.722 2335.78C736.417 2366.79 592.867 2352.39 468.884 2423.67C409.14 2458.01 355.063 2505.22 281.871 2507.53C201.936 2510.03 136.888 2482.89 114.249 2399.09Z" fill="#E87100"/>
<path d="M-867.02 1992.06C-679.037 1838.65 -475.05 1849.86 -302.371 2019.36C-158.866 2160.24 -126.088 2346.8 -81.9714 2529.18L50.5098 2529.18C-9.41849 2343.66 -138.805 2199 -242.996 2039.7C-419.14 1770.41 -751.544 1765.49 -930.074 2027.98C-935.948 2036.62 -940.081 2046.41 -945.093 2055.69C-937.31 2049.67 -929.373 2043.83 -921.776 2037.59C-903.447 2022.47 -885.403 2007.06 -867.02 1992.06Z" fill="#E87100"/>
<path d="M78.1608 1545.51C20.4265 1538.34 -57.5227 1542.92 -88.7377 1462.57C-108.752 1410.94 -59.8552 1422.54 -33.3127 1418.58C37.6159 1407.98 86.6209 1366.16 127.12 1310.63C142.007 1290.23 153.293 1256.88 182.891 1262.64C223.49 1270.54 240.949 1309.2 253.666 1344.23C298.714 1468.48 235.16 1545.51 78.1608 1545.51Z" fill="#E87100"/>
<path d="M1044.94 713.29C982.081 715.699 932.321 697.301 914.609 629.767C903.654 588.022 933.561 580.17 962.336 580.824C1046.6 582.718 1130.84 587.198 1214.94 592.833C1235.61 594.218 1261.25 600.531 1262.57 627.296C1264.46 665.701 1230.24 674.816 1203.5 685.077C1152.92 704.464 1099.11 714.039 1044.94 713.29Z" fill="#E87100"/>
</g>
<defs>
<clipPath id="clip0_185_4712">
<rect width="1000" height="2000" fill="white"/>
</clipPath>
</defs>
</svg>
