<svg width="1000" height="2000" viewBox="0 0 1000 2000" fill="none" xmlns="http://www.w3.org/2000/svg">
<g clip-path="url(#clip0_185_4681)">
<path d="M2039.17 -550H-1040V2529.17H2039.17V-550Z" fill="white"/>
<path d="M1024.31 2529.17C998.724 2519.67 970.919 2518 944.354 2514.86C836.983 2502.15 731.075 2472.92 621.811 2480.81C557.433 2485.43 493.471 2495.73 429.117 2501.02C400.573 2503.32 384.784 2483.71 374.138 2458.45C363.223 2432.56 354.732 2397.54 317.866 2403.74C271.279 2411.59 258.161 2450.49 253.435 2492.41C252.75 2498.47 251.618 2504.49 250.694 2510.52C245.475 2506.96 239.579 2504.1 235.152 2499.75C165.94 2431.63 172.029 2337.47 267.245 2297.01C411.496 2235.73 491.17 2120.58 570.589 1998.72C602.666 1949.49 647.06 1908.17 711.138 1938.78C777.34 1970.38 764.938 2035.77 752.745 2089.47C720.09 2233.17 760.574 2375.98 852.61 2415.09C935.617 2450.37 1025.95 2455.42 1112.16 2477.48C1153.34 2488.01 1192.48 2503.09 1225.97 2529.17H1388.09C1340.61 2503.41 1293.41 2477.04 1244.85 2453.56C1165.98 2415.44 1079.34 2404.55 994.821 2385.53C866.42 2356.63 807.954 2226.53 833.573 2083.33C867.213 1895.27 1001.09 1793.66 1137.26 1689.28C1256.58 1597.85 1362.89 1496.9 1360.76 1330.22C1359.42 1225.16 1313.52 1138 1240.93 1064.93C1131.62 954.85 1145.54 833.878 1201.2 705.015C1256.63 576.775 1297.53 445.972 1246.88 304.115C1226.76 247.743 1181.03 219.977 1137.36 187.876C1061.3 131.92 1059.18 78.0886 1142.44 33.918C1244.56 -20.2368 1291.22 -101.019 1311.94 -211.392C1337.78 -349.13 1453.1 -392.878 1587.74 -328.1C1682.42 -282.559 1759.02 -206.896 1858.04 -169.245C1918.99 -146.075 1979.37 -146.36 2039.16 -169.245V-259.088C1861.12 -173.941 1736.68 -284.052 1610.56 -386.804C1534.01 -449.157 1450.8 -476.947 1350.56 -454.877C1316.77 -447.44 1255.88 -436.717 1255.55 -492.258C1255.2 -547.429 1307.7 -543.541 1348.75 -549.992H1131.58C1137.28 -455.947 1179.68 -370.276 1194.88 -278.333C1215.98 -150.693 1150.68 -64.9309 1058.05 7.46796C1026.49 32.1013 994.344 56.5499 959.973 76.8724C923.377 98.5189 875.419 122.79 849.893 72.6077C823.519 20.8392 875.835 -1.93116 912.092 -21.5147C982.05 -59.296 1069.42 -72.675 1092.35 -169.507C1115.44 -267.017 1079.72 -356.567 1061.13 -448.711C1054.34 -482.212 1049.98 -516.191 1044.78 -550H961.643C973.236 -514.766 985.06 -479.602 996.168 -444.215C1025.57 -350.554 1065.13 -254.677 987.316 -166.49C935.232 -107.462 858.845 -73.2447 812.658 -7.61993C749.35 82.2917 683.564 167.846 576.563 210.554C551.775 220.439 516.519 230.415 518.49 263.147C520.645 298.626 556.063 313.306 584.26 328.771C671.001 376.321 769.526 361.872 861.74 380.694C908.966 390.339 958.048 402.748 975.322 455.04C988.501 494.923 963.414 527.609 933.43 547.939C874.239 588.157 812.881 625.09 749.635 658.573C596.908 739.193 461.433 837.688 385.369 999.244C364.993 1042.52 348.674 1090.2 376.055 1136.72C391.074 1162.23 418.932 1171.88 448.462 1167.94C502.763 1160.7 546.548 1129.72 591.235 1101.23C683.987 1042.1 774.391 971.086 887.605 964.311C1008.46 957.083 1098.21 1041.42 1194.65 1098.86C1276.36 1147.52 1326.02 1223.09 1310.54 1322.49C1282.01 1505.61 1168.03 1631.24 1019.41 1729C972.382 1759.93 918.073 1788.43 861.385 1758.42C809.124 1730.71 816.491 1675.5 826.622 1629.23C848.284 1530.24 811.734 1471.37 726.256 1417.43C616.522 1348.14 614.405 1289.99 703.724 1211.76C768.502 1155.03 843.827 1095.85 933.361 1111.6C1070.66 1135.74 1142.06 1242.74 1143.88 1391.39C1144.12 1410.52 1139.89 1436.11 1164.92 1444.58C1172.84 1447.26 1188.29 1439.8 1194.85 1432.26C1221.02 1402.13 1231.37 1365.07 1234.02 1325.84C1241.42 1216.39 1165.01 1167.17 1084.58 1124.5C1021.58 1091.09 964.491 1033.8 885.865 1046.76C781.989 1063.91 710.93 1147.51 618.562 1189.66C538.073 1226.39 526.518 1277.14 582.482 1346.2C607.708 1377.33 638.939 1405.16 671.847 1428.21C799.633 1517.73 814.621 1580.34 730.567 1694.86C687.02 1754.18 630.54 1807.36 600.896 1872.84C532.946 2022.95 438.955 2133.58 277.583 2192.04C105.327 2254.46 56.0371 2412.93 157.75 2529.17H1024.31ZM524.794 1066.56C502.239 1088.81 463.981 1120.28 439.132 1087.81C403.444 1041.16 450.786 1003.2 479.63 972.117C602.397 839.782 758.426 750.14 903.593 646.403C960.973 605.404 1014.34 555.983 1031.29 483.761C1046.83 417.559 992.45 396.074 946.994 371.202C933.446 363.789 910.398 361.541 912.792 343.243C913.654 336.6 942.16 329.78 958.148 329.533C1045.2 328.194 1100.89 380.725 1100.89 486.355C1093.19 588.045 1012.94 669.889 918.735 734.475C775.939 832.346 647.53 945.482 524.794 1066.56ZM767.194 942.996C762.821 944.358 758.118 944.674 753.568 945.474C755.185 940.625 755.839 935.136 758.572 931.033C816.791 843.439 912.815 801.939 993.251 742.219C1113.49 652.923 1185.29 481.867 1134.04 380.84C1095.66 305.177 1030.83 273.839 936.201 273.978C888.474 273.423 832.888 293.222 776.439 309.288C752.475 316.124 720.344 330.488 706.919 302.545C693.833 275.302 724.016 259.005 745.347 247.643C911.899 158.917 1167.07 182.449 1219.54 398.93C1250.72 527.632 1192.39 635.325 1114.28 730.957C1024.04 841.329 900.575 901.289 767.194 942.957V942.996Z" fill="#E87100"/>
<path d="M871.392 -550H808.839C847.998 -502.519 878.42 -451.028 886.326 -387.497C896.179 -308.385 879.044 -235.394 821.556 -181.531C719.489 -85.9078 654.942 43.5711 540.697 127.063C455.181 189.554 363.153 173.32 276.574 133.136C173.684 85.4093 76.1743 94.1773 -22.6284 139.757C-28.7868 142.597 -35.9458 143.267 -42.643 144.953C-40.8494 138.025 -40.0103 130.681 -37.1159 124.253C-2.72929 47.7434 132.238 17.7446 235.306 61.9846C338.589 106.301 441.956 164.044 550.751 74.3012C624.966 13.0643 668.26 -72.5904 725.917 -146.929C769.741 -203.44 830.609 -251.067 833.788 -329.447C838.06 -433.592 782.212 -501.287 699.274 -549.969H282.933C322.269 -536.382 361.451 -522.256 401.411 -510.917C477.097 -489.363 552.29 -522.972 627.915 -516.191C701.761 -509.555 756.362 -470.234 791.842 -406.31C813.627 -367.051 812.942 -326.314 786.5 -287.539C776.123 -272.321 762.636 -262.906 744.931 -265.585C723.846 -268.749 715.217 -286.369 710.598 -305.098C679.352 -432.114 642.856 -458.856 516.872 -423.923C434.589 -401.114 373.591 -444.069 307.281 -471.065C163.168 -529.754 20.7878 -437.849 20.1488 -283.082C19.9872 -245.747 17.5624 -208.32 14.0676 -171.139C11.635 -145.228 6.58515 -115.46 -28.9715 -120.471C-61.4798 -125.09 -73.4655 -155.112 -72.4648 -182.247C-66.9299 -332.326 -38.1475 -506.676 137.942 -550H7.13173C-83.773 -435.008 -122.671 -303.058 -108.406 -157.075C-103.079 -102.512 -72.9959 -51.4596 -8.60286 -60.9203C61.1557 -71.174 51.9412 -137.823 59.3312 -187.936C72.6948 -278.664 59.77 -381.2 162.383 -432.06C230.125 -465.646 294.834 -442.575 349.843 -400.414C397.285 -364.057 442.918 -350.508 504.394 -356.967C640.262 -371.246 688.959 -303.72 656.043 -160.77C625.967 -30.2365 520.013 82.0453 426.53 80.0362C356.74 78.4966 305.511 29.4378 244.597 5.07388C125.841 -42.4377 30.1715 8.99212 -59.8864 80.5135C-196.694 189.162 -343.17 276.656 -522.408 292.283C-539.043 293.73 -558.819 291.267 -562.614 272.854C-566.856 252.254 -546.272 246.511 -531.053 241.146C-447.492 211.601 -359.928 193.111 -281.871 148.448C-165.032 81.5758 -151.969 -20.3831 -171.676 -142.395C-194.923 -286.285 -162.307 -423.138 -90.0237 -550H-158.797C-214.222 -411.722 -206.016 -265.177 -212.936 -120.394C-216.955 -36.1177 -235.16 44.8259 -296.42 107.703C-423.097 237.728 -613.536 232.262 -754.246 98.5035C-773.383 80.3133 -798.555 43.5789 -826.607 67.0883C-855.012 90.8749 -826.66 121.128 -809.371 145.014C-797.57 161.334 -785.9 177.969 -772.252 192.68C-699.768 270.752 -634.882 362.242 -508.675 350.018C-432.065 342.597 -372.268 295.162 -306.22 263.085C-163.2 193.657 -18.9027 283.223 -18.9027 442.647C-18.9027 639.806 -220.865 778.83 -424.46 736.245C-565.332 706.77 -690.13 634.494 -829.971 605.203C-908.697 588.715 -1003.47 642.523 -1023.07 721.211C-1039.51 787.128 -993.636 842.9 -909.274 865.647C-789.603 897.978 -678.044 943.396 -599.233 1048.28C-516.373 1158.59 -486.767 1162.36 -369.651 1080.83C-272.357 1013.09 -172.353 982.301 -55.0367 1025.11C52.2492 1064.25 96.8047 1035.49 97.8285 921.488C99.1449 775.158 166.571 681.174 300.138 629.336C415.029 584.75 475.188 476.294 446.344 358.924C430.948 296.317 380.758 271.799 322.154 285.163C269.854 297.079 289.053 343.89 296.373 378.169C316.288 471.229 309.321 554.374 223.882 614.764C169.819 652.977 118.69 694.184 93.0173 758.638C73.48 807.751 52.6649 856.648 15.5917 895.43C-66.214 981.016 -176.748 966.621 -279.446 976.967C-498.29 999.006 -679.176 895.415 -860.639 796.066C-895.98 776.713 -938.211 749 -909.906 702.32C-883.071 658.05 -836.298 672.899 -799.541 694.969C-677.005 768.522 -557.988 845.971 -412.997 874.33C-289.13 898.533 -163.7 867.972 -106.212 789.507C4.40667 638.543 33.1199 467.734 27.1232 285.848C23.459 174.29 87.5903 123.93 193.398 159.417C362.883 216.251 517.481 212.317 645.543 70.5754C711.868 -2.80111 763.706 -89.4719 844.796 -149.254C915.655 -201.5 948.672 -268.202 934.861 -357.675C924.446 -425.755 896.249 -487.185 871.392 -550Z" fill="#E87100"/>
<path d="M1087.24 2282.13C1234.66 2333.03 1356.67 2431.37 1496.4 2496.13C1521.3 2507.67 1546.54 2518.45 1571.78 2529.23H1675.91C1670.52 2528.46 1665.26 2527.43 1660.21 2526.44C1534.46 2501.69 1434.85 2433.3 1347.02 2341.61C1206.15 2194.58 1236.75 1871.89 1403.11 1755.64C1495.52 1691.06 1585.37 1622.57 1673.52 1552.26C1699.5 1531.54 1723.66 1489.91 1693.15 1464.28C1661.52 1437.73 1648.28 1484.49 1629.45 1503.77C1595.14 1538.89 1563.89 1578.79 1524.31 1606.66C1371.5 1714.22 1233.82 1831.57 1196.01 2028.5C1189.33 2063.28 1174.17 2099.43 1129.93 2087.63C1095.66 2078.49 1093.69 2043.57 1099.91 2013.5C1133.78 1848.92 1243.17 1738.14 1367.64 1637.67C1438.61 1580.33 1524.95 1536.36 1558.82 1443.76C1586.8 1367.4 1547.01 1293.08 1543.47 1217.33C1540.54 1154.67 1552.59 1085.39 1511.72 1032.41C1481.27 992.909 1428.02 970.647 1399 930.502C1321.07 822.731 1347.7 701.189 1376.98 586.09C1409.21 459.359 1437.95 335.761 1407.59 203.742C1379.25 80.4596 1380.99 -43.1536 1437.65 -160.562C1447.51 -180.985 1462.89 -199.976 1488.6 -194.533C1515.17 -188.906 1518.62 -165.281 1518.5 -142.133C1518.04 -46.8716 1489.47 45.9575 1499.26 142.69C1508.45 233.525 1569.12 300.397 1638.27 283.954C1758.45 255.387 1891.08 317.994 1933.87 432.932C1976.37 546.992 1952.64 671.567 1978.47 789.122C1990.64 844.547 1998.82 901.512 2039.14 944.512V763.611C2016.81 702.798 2011.42 638.258 2010.1 574.789C2006 374.928 1915.53 245.98 1722.44 185.274C1598.85 146.438 1556.85 63.3471 1564.55 -104.067C1567.28 -163.603 1586.88 -233.831 1506.64 -250.405C1432.48 -265.723 1412.65 -196.866 1390.72 -144.127C1359.73 -69.6113 1312.7 -8.02796 1257.93 50.684C1202.38 110.227 1260.95 153.528 1291.74 196.983C1393.81 341.034 1378.57 497.202 1311.67 640.899C1234.4 806.874 1267.73 930.156 1387.71 1057.76C1509.2 1186.98 1524.41 1389.49 1432.52 1513.16C1360.77 1609.72 1248.89 1664.94 1165.23 1750.15C1065.6 1851.62 948.318 1944.43 930.074 2097.88C917.072 2207.62 1000.54 2252.19 1087.24 2282.13Z" fill="#E87100"/>
<path d="M857.482 475.586C855.943 467.657 841.178 458.65 831.148 456.649C746.933 440.098 659.292 443.024 578.087 408.321C549.189 395.966 534.609 417.136 532.292 443.062C521.045 568.992 465.251 658.95 340.244 702.113C267.237 727.315 194.676 764.011 177.51 848.373C165.509 907.37 170.082 969.923 168.973 1030.92C167.549 1108.82 126.958 1145.9 51.8955 1131.42C-14.5067 1118.6 -79.531 1092.57 -146.18 1088.31C-289.469 1079.07 -376.732 1176.24 -456.744 1275.73C-494.649 1322.86 -488.121 1375.91 -440.109 1417.06C-408.394 1444.24 -374.454 1434.34 -344.324 1412.82C-308.359 1387.14 -277.953 1350.04 -238.593 1333.34C-34.0364 1246.52 164.585 1288.09 347.072 1391.74C509.59 1484.04 545.009 1609.67 471.009 1733.61C402.497 1848.31 284.719 1881.41 169.389 1920.12C15.1688 1971.84 -120.099 2044.11 -161.806 2222.02C-184.315 2318.01 -232.627 2398.76 -339.774 2415.46C-436.607 2430.56 -497.936 2366.33 -558.588 2303.03C-609.871 2249.5 -657.437 2189.19 -729.982 2162.58C-856.605 2116.14 -950.612 2179.51 -1040 2255.4V2365.97C-1013.5 2327.27 -989.094 2286.84 -949.165 2259.29C-830.886 2177.7 -729.851 2197.02 -640.571 2312.9C-580.042 2391.48 -515.018 2466.61 -437.346 2529.21H-146.749C-189.804 2348.05 -108.737 2208.21 14.7607 2086.21C93.6182 2008.3 202.967 1979.65 298.506 1928.62C425.206 1860.95 532.068 1774.04 560.358 1622.64C581.104 1511.63 502.37 1457.59 427.639 1401.57C373.545 1361.02 304.472 1332.8 292.54 1253.96C290.646 1241.43 297.459 1227.57 300.238 1214.33C306.481 1217.33 314.356 1218.85 318.651 1223.57C328.466 1234.44 336.041 1247.3 345.386 1258.63C404.375 1330.16 479.861 1383.02 551.105 1440.71C648.515 1519.59 645.52 1614.95 567.717 1752C465.897 1931.36 296.481 2020.59 127.443 2113.14C3.16765 2181.18 -112.501 2373.12 -44.2207 2529.17H52.2573C-34.6598 2348.2 62.0259 2157.67 240.618 2097.01C319.213 2070.31 405.723 2056.98 459.546 1982.01C522.223 1894.77 556.032 1789.57 631.341 1709.83C666.997 1672.11 705.102 1631.77 698.928 1573.83C690.769 1497.28 623.704 1466.32 573.907 1423.03C481.786 1342.97 369.727 1276.67 331.084 1153.79C278.999 988.167 367.179 861.698 471.432 746.083C569.965 636.773 709.097 589.815 831.063 516.539C845.99 507.578 861.239 494.646 857.482 475.586ZM356.841 835.625C306.45 926.838 288.606 1026.23 273.388 1127.95C255.351 1248.51 165.84 1304.73 47.0689 1255.94C-110.33 1191.28 -241.264 1209.14 -358.28 1332.92C-371.513 1346.92 -399.079 1367.37 -410.526 1347.08C-430.317 1312.03 -399.603 1282.31 -377.702 1257.02C-266.028 1127.98 -134.54 1106.73 21.7736 1173.73C81.8173 1199.47 165.563 1235.32 202.251 1136.32C220.996 1085.75 219.087 1027.51 226.515 972.733C229.679 907.2 225.568 838.473 278.391 787.89C300.769 766.459 330.93 745.69 359.758 764.319C388.056 782.563 369.257 813.132 356.841 835.625Z" fill="#E87100"/>
<path d="M403.044 1614.89C382.375 1594.98 355.494 1648.55 333.97 1671.58C287.652 1721.14 234.013 1749.81 167.157 1722.11C104.465 1696.14 43.5895 1680.85 -22.8358 1706.51C-159.566 1759.31 -276.69 1854.21 -426.738 1880.77C-555.047 1903.49 -702.323 1832.91 -742.222 1708.92C-773.521 1611.73 -748.033 1508.01 -772.39 1409.47C-811.333 1252.01 -884.502 1121.22 -1040 1053.48V1126.61C-922.491 1184.26 -869.106 1291.19 -839.546 1410.04C-799.579 1570.81 -776.554 1735.82 -828.723 1897.56C-860.731 1996.79 -944.9 2048.32 -1040 2080.77V2143.83C-821.61 1980.83 -649.469 2034.38 -487.698 2220.81C-402.251 2319.27 -313.271 2319.63 -265.32 2198.81C-193.591 2018.06 -82.4407 1886.72 109.615 1831.7C201.566 1805.37 304.949 1803.67 374.608 1723.47C401.904 1692.04 435.86 1646.49 403.044 1614.89ZM56.2449 1796.49C-70.001 1862.84 -168.072 1968.98 -290.161 2040.86C-333.716 2066.51 -381.767 2079.15 -438.731 2079.45C-520.852 2076.3 -599.956 2044.87 -672.363 1996.24C-687.836 1985.85 -709.313 1970.23 -696.758 1946.48C-680.199 1915.11 -649.477 1918.6 -623.296 1929.35C-428.416 2009.33 -275.351 1917.03 -123.702 1812.07C-72.6106 1776.66 -19.6257 1741.06 48.3007 1746.68C62.6881 1747.87 75.7592 1754.45 75.6668 1766.07C75.5667 1776.5 65.8519 1791.45 56.2449 1796.49Z" fill="#E87100"/>
<path d="M264.373 1434.72C117.082 1371.86 -38.5781 1394.56 -191.636 1406.46C-222.797 1408.87 -255.528 1437.72 -249.416 1475.32C-245.367 1500.22 -211.696 1496.38 -191.944 1491.59C-81.0936 1464.71 30.5261 1447.99 144.278 1465.99C177.995 1471.33 229.902 1467.35 229.787 1515.37C229.664 1565.36 180.458 1561.56 145.164 1558.44C40.7952 1549.21 -62.0721 1537.82 -165.363 1573.61C-381.959 1648.66 -509.321 1593.23 -563.137 1370.38C-626.707 1107.16 -787.724 970.093 -1040 921.272V963.265C-1038.29 963.512 -1036.6 963.89 -1034.94 964.396C-822.303 1032.14 -652.541 1283.34 -641.756 1541.38C-638.3 1623.89 -622.781 1706.37 -543.315 1751.84C-452.403 1803.86 -367.217 1764.56 -290.492 1715.8C-148.35 1625.48 -10.3806 1539.86 170.574 1613.78C219.618 1633.79 282.879 1610.62 309.376 1553.33C332.184 1504 309.922 1454.15 264.373 1434.72Z" fill="#E87100"/>
<path d="M1055.5 1411.05C1048.32 1468.79 1052.9 1546.74 972.551 1577.95C920.921 1597.97 932.522 1549.07 928.565 1522.53C917.965 1451.6 876.142 1402.59 820.617 1362.09C800.21 1347.21 766.863 1335.92 772.621 1306.32C780.527 1265.72 819.185 1248.26 854.219 1235.55C978.463 1190.5 1055.5 1254.05 1055.5 1411.05Z" fill="#E87100"/>
<path d="M223.275 444.271C225.684 507.132 207.286 556.891 139.752 574.604C98.0065 585.558 90.1546 555.652 90.8089 526.877C92.7026 442.616 97.1827 358.37 102.818 274.27C104.203 253.601 110.516 227.959 137.281 226.643C175.686 224.757 184.8 258.974 195.062 285.709C214.449 336.292 224.024 390.105 223.275 444.271Z" fill="#E87100"/>
<path d="M401.997 0.401062C331.592 -43.4771 243.127 -84.9534 172.322 -146.729C109.299 -201.731 128.544 -334.458 191.852 -360.693C252.834 -385.904 291.817 -337.199 333.701 -306.392C382.09 -270.797 432.003 -256.74 492.932 -266.971C578.256 -281.304 600.364 -250.974 573.583 -155.936C551.537 -77.6943 505.68 -18.9515 401.997 0.401062Z" fill="#E87100"/>
</g>
<defs>
<clipPath id="clip0_185_4681">
<rect width="1000" height="2000" fill="white"/>
</clipPath>
</defs>
</svg>
