<svg width="1000" height="2000" viewBox="0 0 1000 2000" fill="none" xmlns="http://www.w3.org/2000/svg">
<g clip-path="url(#clip0_185_4743)">
<path d="M2039.17 -550H-1040V2529.17H2039.17V-550Z" fill="white"/>
<path d="M2039.15 464.901C2029.65 490.489 2027.98 518.294 2024.84 544.859C2012.14 652.23 1982.9 758.138 1990.79 867.402C1995.41 931.779 2005.72 995.742 2011 1060.1C2013.31 1088.64 1993.7 1104.43 1968.44 1115.07C1942.54 1125.99 1907.52 1134.48 1913.73 1171.35C1921.57 1217.93 1960.47 1231.05 2002.39 1235.78C2008.45 1236.46 2014.47 1237.59 2020.51 1238.52C2016.94 1243.74 2014.09 1249.63 2009.73 1254.06C1941.61 1323.27 1847.45 1317.18 1806.99 1221.97C1745.71 1077.72 1630.56 998.043 1508.7 918.624C1459.48 886.547 1418.15 842.153 1448.76 778.075C1480.36 711.873 1545.75 724.274 1599.45 736.468C1743.15 769.122 1885.96 728.639 1925.08 636.603C1960.36 553.596 1965.41 463.261 1987.47 377.052C1998 335.876 2013.07 296.732 2039.15 263.239L2039.15 101.121C2013.39 148.601 1987.02 195.805 1963.54 244.363C1925.42 323.236 1914.54 409.868 1895.52 494.392C1866.62 622.793 1736.52 681.258 1593.31 655.64C1405.26 622 1303.65 488.118 1199.26 351.95C1107.83 232.632 1006.88 126.324 840.201 128.456C735.14 129.795 647.984 175.69 574.915 248.282C464.835 357.592 343.862 343.674 214.999 288.011C86.7596 232.586 -44.0433 191.687 -185.901 242.331C-242.272 262.453 -270.039 308.179 -302.139 351.849C-358.095 427.913 -411.927 430.029 -456.097 346.769C-510.252 244.648 -591.034 197.991 -701.407 177.276C-839.146 151.434 -882.893 36.1117 -818.115 -98.5249C-772.574 -193.209 -696.911 -269.804 -659.261 -368.83C-636.09 -429.782 -636.375 -490.156 -659.261 -549.946L-749.103 -549.946C-663.957 -371.909 -774.068 -247.472 -876.819 -121.349C-939.172 -44.7934 -966.962 38.4134 -944.892 138.648C-937.456 172.442 -926.733 233.332 -982.273 233.663C-1037.44 234.01 -1033.56 181.51 -1040.01 140.465L-1040.01 357.631C-945.962 351.934 -860.292 309.534 -768.348 294.331C-640.709 273.231 -554.946 338.532 -482.547 431.161C-457.914 462.723 -433.466 494.869 -413.143 529.24C-391.496 565.836 -367.225 613.794 -417.408 639.32C-469.176 665.693 -491.947 613.378 -511.53 577.121C-549.311 507.162 -562.69 419.791 -659.523 396.867C-757.032 373.773 -846.582 409.491 -938.726 428.082C-972.227 434.871 -1006.21 439.228 -1040.02 444.432L-1040.02 527.57C-1004.78 515.977 -969.618 504.153 -934.23 493.045C-840.57 463.639 -744.692 424.079 -656.505 501.897C-597.477 553.981 -563.26 630.368 -497.635 676.555C-407.724 739.863 -322.169 805.649 -279.461 912.65C-269.577 937.438 -259.6 972.694 -226.869 970.723C-191.389 968.568 -176.709 933.15 -161.244 904.952C-113.694 818.212 -128.143 719.687 -109.322 627.473C-99.6762 580.247 -87.2671 531.165 -34.9752 513.891C4.90771 500.712 37.5931 525.799 57.9233 555.783C98.1412 614.974 135.075 676.332 168.558 739.578C249.178 892.305 347.673 1027.78 509.229 1103.84C552.507 1124.22 600.188 1140.54 646.706 1113.16C672.217 1098.14 681.862 1070.28 677.921 1040.75C670.685 986.45 639.709 942.664 611.219 897.978C552.083 805.226 481.07 714.821 474.296 601.608C467.068 480.751 551.406 391.001 608.84 294.562C657.506 212.856 733.077 163.197 832.472 178.677C1015.59 207.206 1141.23 321.181 1238.98 469.804C1269.91 516.831 1298.41 571.14 1268.41 627.827C1240.69 680.088 1185.48 672.722 1139.21 662.591C1040.22 640.929 981.35 677.479 927.411 762.957C858.129 872.69 799.979 874.807 721.746 785.488C665.012 720.71 605.838 645.386 621.58 555.852C645.721 418.552 752.722 347.154 901.376 345.329C920.506 345.091 946.094 349.324 954.561 324.291C957.248 316.37 949.781 300.928 942.245 294.361C912.115 268.188 875.057 257.842 835.821 255.194C726.372 247.797 677.151 324.206 634.49 404.634C601.073 467.634 543.785 524.721 556.741 603.348C573.899 707.224 657.499 778.283 699.645 870.65C736.379 951.14 787.124 962.694 856.182 906.731C887.312 881.505 915.148 850.274 938.195 817.365C1027.71 689.58 1090.33 674.592 1204.84 758.646C1264.16 802.193 1317.34 858.672 1382.83 888.317C1532.94 956.267 1643.56 1050.26 1702.02 1211.63C1764.44 1383.89 1922.91 1433.18 2039.15 1331.46L2039.15 464.901ZM576.547 964.419C598.794 986.974 630.263 1025.23 597.794 1050.08C551.144 1085.77 513.186 1038.43 482.102 1009.58C349.767 886.816 260.124 730.787 156.387 585.62C115.388 528.239 65.9676 474.87 -6.25423 457.927C-72.4563 442.385 -93.9413 496.763 -118.813 542.219C-126.226 555.767 -128.474 578.815 -146.772 576.421C-153.415 575.559 -160.236 547.053 -160.482 531.065C-161.821 444.009 -109.291 388.322 -3.66004 388.322C98.0294 396.02 179.874 476.271 244.459 570.478C342.33 713.274 455.467 841.683 576.547 964.419ZM452.98 722.019C454.343 726.392 454.658 731.095 455.459 735.644C450.609 734.028 445.121 733.374 441.018 730.641C353.423 672.421 311.924 576.398 252.203 495.962C162.907 375.721 -8.14798 303.922 -109.175 355.175C-184.838 393.557 -216.176 458.381 -216.038 553.011C-216.592 600.738 -196.793 656.325 -180.728 712.774C-173.892 736.738 -159.527 768.869 -187.471 782.294C-214.714 795.38 -231.01 765.197 -242.372 743.866C-331.099 577.314 -307.566 322.143 -91.0853 269.674C37.6161 238.498 145.31 296.825 240.941 374.935C351.314 465.17 411.273 588.637 452.942 722.019L452.98 722.019Z" fill="#E87100"/>
<path d="M-1040.02 617.82L-1040.02 680.373C-992.534 641.214 -941.043 610.792 -877.512 602.886C-798.401 593.033 -725.409 610.168 -671.547 667.656C-575.923 769.723 -446.444 834.27 -362.953 948.515C-300.461 1034.03 -316.696 1126.06 -356.879 1212.64C-404.606 1315.53 -395.838 1413.04 -350.259 1511.84C-347.418 1518 -346.749 1525.16 -345.063 1531.86C-351.991 1530.06 -359.335 1529.22 -365.762 1526.33C-442.272 1491.94 -472.271 1356.97 -428.031 1253.91C-383.714 1150.62 -325.972 1047.26 -415.714 938.462C-476.951 864.246 -562.606 820.953 -636.945 763.295C-693.455 719.471 -741.082 658.604 -819.462 655.425C-923.607 651.152 -991.303 707.001 -1039.98 789.938L-1039.98 1206.28C-1026.4 1166.94 -1012.27 1127.76 -1000.93 1087.8C-979.379 1012.12 -1012.99 936.922 -1006.21 861.298C-999.57 787.452 -960.249 732.85 -896.326 697.371C-857.067 675.585 -816.329 676.27 -777.555 702.713C-762.336 713.09 -752.921 726.576 -755.6 744.282C-758.764 765.366 -776.385 773.995 -795.114 778.614C-922.129 809.86 -948.872 846.356 -913.939 972.34C-891.13 1054.62 -934.084 1115.62 -961.081 1181.93C-1019.77 1326.04 -927.864 1468.42 -773.098 1469.06C-735.763 1469.23 -698.335 1471.65 -661.155 1475.14C-635.243 1477.58 -605.476 1482.63 -610.487 1518.18C-615.106 1550.69 -645.127 1562.68 -672.263 1561.68C-822.341 1556.14 -996.691 1527.36 -1040.02 1351.27L-1040.02 1482.08C-925.024 1572.99 -793.074 1611.88 -647.09 1597.62C-592.528 1592.29 -541.475 1562.21 -550.936 1497.82C-561.189 1428.06 -627.838 1437.27 -677.951 1429.88C-768.679 1416.52 -871.215 1429.44 -922.075 1326.83C-955.661 1259.09 -932.591 1194.38 -890.429 1139.37C-854.072 1091.93 -840.524 1046.29 -846.982 984.818C-861.262 848.95 -793.736 800.253 -650.785 833.169C-520.252 863.245 -407.97 969.199 -409.979 1062.68C-411.519 1132.47 -460.578 1183.7 -484.942 1244.62C-532.453 1363.37 -481.023 1459.04 -409.502 1549.1C-300.854 1685.91 -213.359 1832.38 -197.732 2011.62C-196.285 2028.26 -198.748 2048.03 -217.162 2051.83C-237.761 2056.07 -243.504 2035.48 -248.87 2020.27C-278.414 1936.7 -296.905 1849.14 -341.568 1771.08C-408.44 1654.24 -510.399 1641.18 -632.411 1660.89C-776.3 1684.14 -913.154 1651.52 -1040.02 1579.24L-1040.02 1648.01C-901.738 1703.43 -755.192 1695.23 -610.41 1702.15C-526.133 1706.17 -445.189 1724.37 -382.313 1785.63C-252.287 1912.31 -257.753 2102.75 -391.512 2243.46C-409.702 2262.6 -446.437 2287.77 -422.927 2315.82C-399.141 2344.22 -368.888 2315.87 -345.001 2298.58C-328.682 2286.78 -312.046 2275.11 -297.336 2261.46C-219.263 2188.98 -127.774 2124.09 -139.998 1997.89C-147.419 1921.28 -194.853 1861.48 -226.93 1795.43C-296.358 1652.41 -206.793 1508.12 -47.3689 1508.12C149.79 1508.12 288.815 1710.08 246.23 1913.67C216.754 2054.54 144.479 2179.34 115.188 2319.18C98.6991 2397.91 152.508 2492.69 231.196 2512.28C297.113 2528.72 352.884 2482.85 375.632 2398.49C407.963 2278.81 453.381 2167.26 558.265 2088.45C668.576 2005.59 672.348 1975.98 590.819 1858.86C523.078 1761.57 492.286 1661.57 535.094 1544.25C574.238 1436.96 545.478 1392.41 431.472 1391.38C285.143 1390.07 191.159 1322.64 139.321 1189.07C94.7346 1074.18 -13.7213 1014.02 -131.091 1042.87C-193.699 1058.26 -218.216 1108.45 -204.853 1167.06C-192.936 1219.36 -146.125 1200.16 -111.847 1192.84C-18.7866 1172.92 64.3586 1179.89 124.749 1265.33C162.961 1319.39 204.168 1370.52 268.623 1396.2C317.736 1415.73 366.633 1436.55 405.415 1473.62C491 1555.43 476.605 1665.96 486.951 1768.66C508.99 1987.5 405.399 2168.39 306.05 2349.85C286.698 2385.19 258.985 2427.42 212.305 2399.12C168.034 2372.28 182.884 2325.51 204.953 2288.75C278.507 2166.22 355.956 2047.2 384.315 1902.21C408.517 1778.34 377.956 1652.91 299.491 1595.42C148.528 1484.81 -22.2814 1456.09 -204.168 1462.09C-315.726 1465.75 -366.086 1401.62 -330.598 1295.81C-273.765 1126.33 -277.698 971.732 -419.44 843.669C-492.817 777.344 -579.487 725.506 -639.269 644.417C-691.515 573.557 -758.218 540.541 -847.69 554.351C-915.771 564.766 -977.2 592.964 -1040.02 617.82Z" fill="#E87100"/>
<path d="M1792.11 401.97C1843.02 254.555 1941.36 132.543 2006.11 -7.18926C2017.66 -32.0843 2028.44 -57.3259 2039.21 -82.5674L2039.21 -186.697C2038.44 -181.309 2037.42 -176.051 2036.43 -170.993C2011.68 -45.2478 1943.28 54.3631 1851.6 142.189C1704.57 283.061 1381.87 252.461 1265.63 86.1018C1201.05 -6.31171 1132.55 -96.1541 1062.25 -184.311C1041.52 -210.291 999.894 -234.447 974.26 -203.94C947.718 -172.31 994.475 -159.069 1013.75 -140.24C1048.88 -105.93 1088.77 -74.6769 1116.64 -35.1019C1224.2 117.709 1341.55 255.394 1538.49 293.207C1573.27 299.881 1609.42 315.038 1597.61 359.285C1588.48 393.549 1553.56 395.519 1523.48 389.307C1358.9 355.436 1248.12 246.041 1147.66 121.574C1090.31 50.6068 1046.34 -35.7332 953.745 -69.604C877.382 -97.5859 803.066 -57.7954 727.311 -54.2544C664.65 -51.3292 595.376 -63.3764 542.392 -22.5082C502.894 7.9448 480.631 61.1914 440.487 90.2126C332.716 168.139 211.173 141.511 96.0742 112.236C-30.6567 80.0051 -154.254 51.261 -286.274 81.6216C-409.556 109.958 -533.169 108.218 -650.578 51.5612C-671 41.7002 -689.991 26.3198 -684.549 0.616461C-678.921 -25.9568 -655.296 -29.4053 -632.149 -29.2898C-536.887 -28.828 -444.058 -0.261 -347.326 -10.0451C-256.49 -19.2364 -189.619 -79.9037 -206.061 -149.062C-234.628 -269.242 -172.021 -401.869 -57.0836 -444.662C56.9764 -487.154 181.552 -463.429 299.107 -489.256C354.532 -501.426 411.496 -509.609 454.497 -549.923L273.596 -549.923C212.782 -527.599 148.243 -522.211 84.7736 -520.887C-115.087 -516.791 -244.035 -426.318 -304.741 -233.231C-343.577 -109.641 -426.668 -67.6409 -594.083 -75.3388C-653.618 -78.0716 -723.846 -97.6628 -740.42 -17.4274C-755.739 56.7343 -686.881 76.5642 -634.143 98.4956C-559.627 129.48 -498.043 176.514 -439.331 231.285C-379.788 286.833 -336.487 228.259 -293.032 197.475C-148.981 95.4009 7.18637 110.643 150.883 177.538C316.858 254.809 440.14 221.485 567.749 101.505C696.966 -19.9832 899.475 -35.1942 1023.14 56.6958C1119.7 128.44 1174.93 240.322 1260.13 323.983C1361.6 423.617 1454.42 540.895 1607.87 559.139C1717.6 572.141 1762.17 488.672 1792.11 401.97Z" fill="#E87100"/>
<path d="M-14.4296 631.73C-22.3584 633.27 -31.3651 648.035 -33.3665 658.065C-49.9171 742.28 -46.9918 829.921 -81.694 911.126C-94.0491 940.024 -72.8799 954.604 -46.9533 956.921C78.977 968.168 168.935 1023.96 212.097 1148.97C237.3 1221.98 273.996 1294.54 358.358 1311.7C417.354 1323.7 479.908 1319.13 540.906 1320.24C618.801 1321.66 655.882 1362.25 641.402 1437.32C628.585 1503.72 602.559 1568.74 598.294 1635.39C589.056 1778.68 686.227 1865.94 785.715 1945.96C832.842 1983.86 885.896 1977.33 927.041 1929.32C954.222 1897.61 944.323 1863.67 922.807 1833.54C897.127 1797.57 860.023 1767.17 843.326 1727.81C756.509 1523.25 798.07 1324.63 901.723 1142.14C994.021 979.622 1119.66 944.204 1243.59 1018.2C1358.29 1086.72 1391.39 1204.49 1430.1 1319.82C1481.82 1474.04 1554.09 1609.31 1732 1651.02C1827.99 1673.53 1908.75 1721.84 1925.45 1828.99C1940.54 1925.82 1876.32 1987.15 1813.01 2047.8C1759.49 2099.08 1699.17 2146.65 1672.56 2219.19C1626.12 2345.82 1689.5 2439.82 1765.38 2529.21L1875.96 2529.21C1837.25 2502.71 1796.82 2478.31 1769.28 2438.38C1687.68 2320.1 1707 2219.06 1822.89 2129.78C1901.47 2069.25 1976.6 2004.23 2039.2 1926.56L2039.2 1635.96C1858.03 1679.02 1718.19 1597.95 1596.19 1474.45C1518.29 1395.59 1489.64 1286.25 1438.61 1190.71C1370.93 1064.01 1284.02 957.144 1132.63 928.855C1021.61 908.109 967.571 986.843 911.553 1061.57C871.008 1115.67 842.78 1184.74 763.945 1196.67C751.413 1198.57 737.557 1191.75 724.316 1188.97C727.311 1182.73 728.835 1174.86 733.554 1170.56C744.423 1160.75 757.287 1153.17 768.618 1143.83C840.147 1084.84 893.001 1009.35 950.697 938.107C1029.57 840.698 1124.93 843.692 1261.99 921.495C1441.35 1023.32 1530.57 1192.73 1623.13 1361.77C1691.17 1486.05 1883.11 1601.71 2039.16 1533.43L2039.16 1436.96C1858.19 1523.87 1667.66 1427.19 1606.99 1248.6C1580.29 1170 1566.96 1083.49 1492 1029.67C1404.75 966.99 1299.55 933.181 1219.82 857.872C1182.1 822.215 1141.75 784.111 1083.82 790.284C1007.27 798.444 976.3 865.508 933.015 915.306C852.956 1007.43 786.654 1119.49 663.772 1158.13C498.152 1210.21 371.683 1122.03 256.068 1017.78C146.757 919.248 99.7998 780.115 26.5233 658.15C17.5629 643.223 4.63046 627.974 -14.4296 631.73ZM345.61 1132.37C436.822 1182.76 536.218 1200.61 637.93 1215.83C758.495 1233.86 814.713 1323.37 765.924 1442.14C701.261 1599.54 719.12 1730.48 842.903 1847.49C856.905 1860.73 877.351 1888.29 857.067 1899.74C822.011 1919.53 792.297 1888.82 767.001 1866.91C637.969 1755.24 616.715 1623.75 683.718 1467.44C709.452 1407.4 745.301 1323.65 646.306 1286.96C595.738 1268.22 537.496 1270.13 482.717 1262.7C417.185 1259.53 348.458 1263.64 297.875 1210.82C276.444 1188.44 255.675 1158.28 274.304 1129.45C292.548 1101.16 323.116 1119.96 345.61 1132.37Z" fill="#E87100"/>
<path d="M1124.87 1086.17C1104.96 1106.84 1158.53 1133.72 1181.57 1155.24C1231.12 1201.56 1259.79 1255.2 1232.09 1322.06C1206.13 1384.75 1190.83 1445.62 1216.49 1512.05C1269.3 1648.78 1364.19 1765.9 1390.76 1915.95C1413.47 2044.26 1342.9 2191.54 1218.91 2231.43C1121.71 2262.73 1017.99 2237.25 919.459 2261.6C761.99 2300.55 631.203 2373.71 563.461 2529.21L636.591 2529.21C694.249 2411.7 801.173 2358.32 920.028 2328.76C1080.79 2288.79 1245.8 2265.77 1407.55 2317.94C1506.78 2349.94 1558.31 2434.11 1590.76 2529.21L1653.82 2529.21C1490.81 2310.82 1544.37 2138.68 1730.8 1976.91C1829.25 1891.46 1829.61 1802.48 1708.8 1754.53C1528.04 1682.8 1396.71 1571.65 1341.69 1379.6C1315.35 1287.65 1313.65 1184.26 1233.46 1114.61C1202.03 1087.31 1156.48 1053.35 1124.87 1086.17ZM1306.48 1432.97C1372.82 1559.21 1478.97 1657.29 1550.85 1779.37C1576.5 1822.93 1589.13 1870.98 1589.43 1927.94C1586.28 2010.07 1554.85 2089.17 1506.22 2161.58C1495.83 2177.05 1480.21 2198.53 1456.47 2185.97C1425.1 2169.41 1428.58 2138.69 1439.33 2112.51C1519.32 1917.63 1427.01 1764.56 1322.06 1612.91C1286.65 1561.82 1251.05 1508.84 1256.67 1440.91C1257.86 1426.52 1264.43 1413.45 1276.06 1413.55C1286.48 1413.65 1301.44 1423.36 1306.48 1432.97Z" fill="#E87100"/>
<path d="M944.701 1224.84C881.847 1372.13 904.548 1527.79 916.442 1680.85C918.859 1712.01 947.703 1744.74 985.307 1738.63C1010.2 1734.58 1006.36 1700.91 1001.57 1681.16C974.692 1570.31 957.972 1458.69 975.977 1344.93C981.312 1311.22 977.34 1259.31 1025.36 1259.43C1075.35 1259.55 1071.55 1308.75 1068.43 1344.05C1059.19 1448.42 1047.81 1551.28 1083.59 1654.58C1158.64 1871.17 1103.22 1998.53 880.369 2052.35C617.147 2115.92 480.077 2276.94 431.257 2529.21L473.249 2529.21C473.497 2527.5 473.875 2525.81 474.381 2524.16C542.123 2311.52 793.321 2141.75 1051.36 2130.97C1133.88 2127.51 1216.35 2111.99 1261.82 2032.53C1313.85 1941.62 1274.54 1856.43 1225.78 1779.71C1135.46 1637.56 1049.85 1499.59 1123.76 1318.64C1143.78 1269.59 1120.61 1206.33 1063.31 1179.84C1013.98 1157.03 964.138 1179.29 944.701 1224.84Z" fill="#E87100"/>
<path d="M-147.48 1614.49C-203.952 1653.25 -210.896 1734.51 -160.698 1805.25C-119.76 1862.99 -63.0879 1911.15 -58.0304 1988.93C-50.1015 2110.92 -125.38 2188.87 -203.198 2266.05C-308.99 2371.01 -315.287 2401.67 -250.078 2529.21L-147.057 2529.21C-207.101 2408.24 -130.121 2318.29 -73.8188 2221.92C26.0693 2050.75 14.176 1940.41 -114.833 1773.35C-132.854 1750.01 -158.049 1718.29 -130.714 1694.31C-97.6131 1665.29 -59.9934 1690.08 -34.7058 1715.78C78.7384 1831.1 81.6483 1971.23 53.4354 2118.91C34.4985 2218.04 -32.2655 2297.24 -55.875 2393.89C-68.0531 2443.54 -51.1639 2486.97 -29.0093 2529.21L65.629 2529.21C27.1933 2482.03 -4.10649 2429.39 14.8766 2367.51C45.2064 2268.65 91.8557 2174.6 119.491 2075.15C157.811 1937.3 187.233 1796.58 93.5877 1664.85C40.9956 1590.84 -75.8511 1565.33 -147.48 1614.49Z" fill="#E87100"/>
<path d="M573.853 -549.954C552.391 -530.255 531.653 -509.424 507.459 -494.005C380.066 -412.823 233.051 -410.429 89.685 -396.011C-40.7947 -382.924 -131.422 -273.752 -112.662 -147.368C-96.72 -39.9436 9.98076 39.3988 137.92 43.9791C219.587 46.8966 302.532 64.3786 376.001 12.6178C415.576 -15.2564 416.677 -74.2764 460.794 -98.7096C524.833 -134.182 594.961 -112.127 662.233 -116.638C750.482 -122.565 829.209 -146.729 881.093 -223.901C957.579 -337.661 947.402 -413.708 836.637 -549.923L573.853 -549.954ZM884.949 -419.859C907.404 -336.721 870.569 -272.675 806.022 -223.524C748.588 -179.792 679.946 -172.379 610.241 -171.755C531.376 -171.455 445.059 -194.749 385.547 -120.949C351.676 -78.9643 344.386 -18.5126 278.9 0.316534C145.857 38.5752 -14.9451 -32.7845 -47.2763 -150.016C-72.5948 -241.821 1.61312 -326.799 129.476 -356.551C262.78 -387.566 406.331 -373.163 530.314 -444.438C590.057 -478.786 644.135 -525.99 717.327 -528.3C797.262 -530.801 862.309 -503.666 884.949 -419.859Z" fill="#E87100"/>
<path d="M1866.22 -12.8315C1678.24 140.58 1474.25 129.364 1301.57 -40.1359C1158.06 -181.008 1125.29 -367.567 1081.17 -549.954L948.688 -549.954C1008.62 -364.434 1138 -219.767 1242.19 -60.4738C1418.34 208.815 1750.74 213.741 1929.27 -48.7499C1935.15 -57.3869 1939.28 -67.1787 1944.29 -76.4624C1936.51 -70.4426 1928.57 -64.5999 1920.97 -58.3569C1902.64 -43.2459 1884.6 -27.8347 1866.22 -12.8315Z" fill="#E87100"/>
<path d="M921.037 433.717C978.771 440.891 1056.72 436.311 1087.94 516.662C1107.95 568.292 1059.05 556.691 1032.51 560.648C961.582 571.248 912.577 613.07 872.078 668.596C857.19 689.003 845.905 722.35 816.307 716.592C775.708 708.686 758.249 670.027 745.532 634.994C700.484 510.75 764.038 433.717 921.037 433.717Z" fill="#E87100"/>
<path d="M-45.7443 1265.94C17.1169 1263.53 66.8763 1281.93 84.5892 1349.46C95.5433 1391.21 65.6369 1399.06 36.8621 1398.4C-47.3993 1396.51 -131.645 1392.03 -215.745 1386.4C-236.414 1385.01 -262.056 1378.7 -263.372 1351.93C-265.258 1313.53 -231.041 1304.41 -204.306 1294.15C-153.723 1274.76 -99.9102 1265.19 -45.7443 1265.94Z" fill="#E87100"/>
</g>
<defs>
<clipPath id="clip0_185_4743">
<rect width="1000" height="2000" fill="white"/>
</clipPath>
</defs>
</svg>
