<svg width="24" height="24" viewBox="0 0 24 24" fill="none" xmlns="http://www.w3.org/2000/svg">
<path fill-rule="evenodd" clip-rule="evenodd" d="M9.36241 10.3995C9.48102 10.2686 9.17338 8.73425 9.11777 8.12274C8.95375 6.31963 8.86825 4.53077 8.86825 2.71621C8.86825 2.07508 8.83025 1.05072 9.49206 0.719882C10.3201 0.305919 10.6146 1.96596 10.698 2.38342C11.0592 4.18876 10.8197 7.99644 12.8191 8.99607C13.5142 9.34367 18.8836 7.38227 19.6397 7.16614C20.5739 6.89929 21.1467 6.79073 21.9918 7.07253C22.4677 7.2311 22.4697 8.31554 22.135 8.53866C20.7846 9.43896 19.1058 10.0948 17.6435 10.826C16.0737 11.6109 15.1994 11.5382 14.9402 13.6125C14.8026 14.7129 15.3072 15.7046 15.564 16.7316C15.8605 17.9177 16.0122 19.0604 16.1462 20.2667C16.2384 21.0954 16.3643 22.544 15.7304 23.178C14.9743 23.9341 14.2227 21.9143 14.1084 21.5144C13.2564 18.5323 13.147 15.418 10.5733 13.4878C10.0277 13.0786 8.96088 13.3398 8.36906 13.4878C7.72765 13.648 3.8469 15.1841 2.54661 15.4008C1.84443 15.5179 1.44471 14.6105 1.71491 14.07C1.99992 13.4999 3.35358 13.105 3.91913 12.8223C4.65066 12.4566 5.41683 12.1642 6.16484 11.8241C7.2279 11.341 8.83262 10.9844 9.36241 10.3995Z" fill="#00A64C"/>
</svg>
