<svg width="24" height="24" viewBox="0 0 24 24" fill="none" xmlns="http://www.w3.org/2000/svg">
<path fill-rule="evenodd" clip-rule="evenodd" d="M8.63819 9.50998C8.24526 8.71518 8.05602 8.45693 7.77762 7.74107C7.20737 6.27476 6.47381 4.87228 5.91311 3.41449C5.75753 3.00999 5.32474 1.79821 5.05255 1.52607C5.04695 1.52042 5.04695 1.50781 5.05255 1.50216C5.16807 1.38668 5.75782 1.33184 5.93703 1.28703C6.47711 1.15202 6.90647 0.874 7.37123 0.641642C7.42942 0.61255 7.64426 0.9826 7.6581 1.02407C7.84508 1.58496 8.10573 2.11059 8.37523 2.64954C9.23287 4.36492 10.0742 6.09536 10.933 7.81281C11.0278 8.00252 11.6694 9.50998 11.913 9.50998C11.9327 9.50998 11.8683 9.10773 11.8652 9.07972C11.8374 8.82947 11.8413 8.56689 11.8413 8.31476C11.8413 7.55871 11.8209 6.7978 11.8652 6.04391C11.938 4.80652 12.0086 3.58085 12.0086 2.3388C12.0086 2.11746 11.8934 0.872023 11.9847 0.689422C12.004 0.650916 12.1788 0.757633 12.1999 0.761163C12.5569 0.820665 12.94 0.84472 13.2994 0.880684C13.5406 0.904786 14.4355 0.654164 14.6141 0.832857C14.7041 0.922862 14.6381 2.61711 14.6381 2.8408C14.6381 4.56047 14.6383 6.28841 14.7337 8.00403C14.7516 8.3271 14.4492 9.81219 14.6877 10.0508C14.6933 10.0564 15.1367 9.32432 15.2117 9.19924C15.5101 8.70204 15.9574 8.25362 16.3352 7.81281C17.3478 6.63149 18.4151 5.42216 19.5145 4.32284C19.8735 3.96371 20.1975 3.54352 20.5662 3.19937C20.7846 2.99553 21.2116 2.57785 21.2116 2.57785C21.5451 3.3221 22.8205 3.80634 23.4108 4.32284C23.5722 4.4641 23.7778 4.61954 23.9606 4.72918C24.0695 4.79451 23.3933 5.47627 23.1957 5.73317C22.6553 6.43561 21.7767 7.04235 21.0682 7.57377C19.5233 8.73245 17.9567 9.81949 16.4547 11.0398C16.3423 11.1312 15.0444 12.2101 15.0444 12.2111C15.0444 12.251 15.1241 12.2111 15.1639 12.2111C15.3308 12.2111 15.4991 12.2423 15.6659 12.2589C16.056 12.2979 16.451 12.3748 16.8372 12.4263C18.2513 12.6148 19.6259 13.0363 21.0443 13.239C21.2068 13.2622 22.4669 13.2991 22.5264 13.3585C22.55 13.3822 22.4873 13.5713 22.4785 13.5976C22.2932 14.1536 22.2683 14.759 22.0961 15.3186C22.0182 15.5717 21.9566 15.8247 21.9048 16.0835C21.8964 16.126 21.8393 16.505 21.8092 16.4899C21.0702 16.1204 20.346 16.0054 19.5145 15.8206C18.4437 15.5827 17.3915 15.1818 16.3352 14.8884C15.6948 14.7105 15.0349 14.4788 14.399 14.2669C14.2677 14.2231 13.4668 13.9255 13.4668 13.98C13.4668 14.2198 13.7455 14.6639 13.7775 14.984C13.8907 16.1155 14.0531 17.3075 14.3751 18.4022C14.5722 19.0724 14.8749 19.7447 14.9966 20.4341C15.0751 20.8791 15.6659 21.94 15.6659 22.5448C15.3859 22.8203 13.123 23.4608 12.9648 23.3025C12.9239 23.2617 12.9765 23.0504 12.9648 22.9918C12.8667 22.5012 12.77 22.0025 12.654 21.5097C12.2146 19.6421 11.9852 17.7535 11.6262 15.8684C11.5646 15.5452 11.6379 13.7581 11.4359 13.5561C11.4224 13.5425 11.1146 13.8726 11.1003 13.9083C11.024 14.099 10.9596 14.2421 10.8373 14.4103C10.5333 14.8283 10.1659 15.2346 9.83335 15.6294C8.51942 17.1897 6.99144 18.7437 5.41112 20.0277C4.95511 20.3982 4.46045 20.8274 4.07252 21.2707C4.02088 21.3297 3.53766 21.955 3.52274 21.94C3.30069 21.718 2.11645 19.8924 1.96897 19.5974C1.92537 19.5102 1.55843 18.9126 1.58649 18.8564C1.78754 18.4543 2.36669 18.1811 2.71001 17.9003C4.14365 16.7273 5.74388 15.6366 7.29954 14.6254C7.9421 14.2077 8.56659 13.7452 9.21188 13.3346C9.27981 13.2913 9.95287 13.0292 9.95287 12.9521C9.95287 12.9494 9.36232 12.7712 9.3314 12.7609C8.60749 12.5196 7.74213 12.5137 6.9888 12.474C5.32022 12.3862 3.59392 12.243 1.92119 12.3546C1.81946 12.3613 0.15459 12.4764 0.104456 12.4263C0.00272864 12.3245 0.25095 11.7177 0.271804 11.6135C0.384358 11.0507 0.672922 9.32921 0.893276 8.88846C0.925192 8.82472 1.83655 8.79384 2.16018 8.76894C3.62588 8.65619 5.01212 8.95907 6.46289 9.05581C6.89466 9.08457 7.58118 9.101 7.96884 9.29485C8.12696 9.37389 8.28066 9.38283 8.44692 9.43828C8.48053 9.44949 8.70983 9.50998 8.63819 9.50998Z" fill="#00A64C"/>
</svg>
