<svg width="24" height="24" viewBox="0 0 24 24" fill="none" xmlns="http://www.w3.org/2000/svg">
<path fill-rule="evenodd" clip-rule="evenodd" d="M6.5929 13.7333C6.30618 14.2238 5.59409 16.0202 5.13253 17.1792C4.65546 18.3775 4.13557 19.5644 3.77727 20.8036C3.74718 20.9076 4.00289 20.8053 4.09859 20.7547C4.2741 20.662 4.41991 20.5203 4.56638 20.3866C4.814 20.1607 5.02847 19.9001 5.27887 19.6772C6.33892 18.7345 9.1796 16.2462 10.472 15.4853C11.2402 15.033 12.3427 16.7887 12.5369 17.0495C13.9144 18.8994 15.3994 21.1697 16.9791 22.8683C17.0386 22.9322 17.1226 22.7437 17.1338 22.6572C17.171 22.3715 17.1417 22.0802 17.1189 21.793C17.0693 21.1694 17.0435 20.5399 16.9165 19.9275C16.89 19.7995 15.7661 15.7182 15.6369 14.9064C15.5787 14.5407 15.451 14.1339 15.6026 13.7959C15.7796 13.4018 16.199 13.1665 16.5379 12.8986C18.0648 11.6915 19.7327 10.6732 21.3589 9.60391C21.5088 9.50529 23.2598 8.72029 23.1109 8.16475C22.9629 7.61371 21.5238 7.77623 21.2963 7.78935C18.3419 7.96088 18.265 7.90322 15.4149 8.72798C14.6103 8.96075 13.8632 9.40137 13.0374 9.54135C12.9038 9.56388 12.9352 9.28432 12.9319 9.14885C12.9274 8.95412 12.9708 8.76019 13.0145 8.57051C13.0896 8.24349 13.2063 7.92721 13.2876 7.60165C13.6937 5.97731 14.0819 4.34859 14.4764 2.72147C14.543 2.44708 14.8315 1.46616 14.6641 1.15717C14.6037 1.04556 14.406 1.20502 14.3038 1.28045C14.0976 1.43262 13.926 1.62867 13.7601 1.82419C13.4821 2.15174 13.197 2.47862 12.9748 2.8466C12.0575 4.36569 11.1846 5.91209 10.3469 7.47652C10.3098 7.54585 9.69061 9.28883 9.53353 9.35365C9.14646 9.51324 8.70147 9.248 8.29267 9.15746C6.97758 8.86597 4.54186 8.1568 3.21948 7.90733C2.78562 7.82541 2.17255 7.44192 1.90028 7.78935C1.65094 8.10762 2.23856 8.52941 2.47478 8.85736C2.97664 9.55394 3.55167 10.1948 4.10549 10.8506C4.92442 11.8203 6.39791 13.2659 6.5929 13.7333Z" fill="#00A64C"/>
</svg>
