<svg width="24" height="24" viewBox="0 0 24 24" fill="none" xmlns="http://www.w3.org/2000/svg">
<path fill-rule="evenodd" clip-rule="evenodd" d="M11.9146 7.96986C12.1975 8.54153 13.1405 8.69686 13.2314 7.96986C13.3222 7.24286 13.542 6.0892 13.721 5.37287C14.0779 3.9457 14.126 2.3832 14.9282 1.12271C15.1372 0.794206 15.4594 -0.0122924 16.0097 0.317874C16.2189 0.443374 16.2319 0.791872 16.2612 0.996871C16.3589 1.68137 16.2504 2.3477 16.085 3.00887C15.7882 4.1967 15.5154 5.4727 15.1294 6.63037C15.0164 6.96953 14.727 7.96986 14.6515 8.26503C14.5293 8.7428 15.3179 8.95636 15.5319 9.17036C15.5319 9.17036 15.924 8.8787 15.9594 8.84336C16.3304 8.47237 16.6259 8.04086 17.0155 7.68653C17.272 7.45336 17.4235 7.16787 17.6444 6.90687C18.3955 6.0192 19.4649 5.10003 20.4862 4.54287C20.8335 4.35353 21.391 3.86904 21.819 4.03987C22.2789 4.22354 21.9027 4.82753 21.8405 4.9402C21.5652 5.43987 20.9174 5.93137 20.44 6.47687C19.5357 7.51053 18.7894 8.04536 17.5185 9.09486C17.2572 9.31086 16.7799 9.6847 16.7799 10.0505C16.7799 10.4163 17.0407 10.9307 17.0407 11.9115C17.0407 12.0505 17.3447 11.8694 17.3929 11.8612C17.7765 11.7974 18.1637 11.7655 18.5497 11.7104C19.7489 11.539 20.9707 11.4755 22.1712 11.5847C22.6915 11.6319 23.2529 11.6857 23.504 12.1882C23.5779 12.336 23.3747 12.6115 23.2915 12.6392C22.8439 12.7884 22.0987 12.727 21.6379 12.7987C20.8682 12.9182 19.5777 13.1064 18.449 13.2194C18.0642 13.2579 17.73 13.2745 17.3677 13.3954C17.3104 13.4144 17.0574 13.471 17.0407 13.521C17.0105 13.6115 16.519 14.7416 16.7799 15.0241C17.0407 15.3067 18.4548 16.7129 19.128 17.218C19.9799 17.8569 20.636 18.7424 21.2657 19.582C21.4437 19.8192 21.8707 20.3927 21.3915 20.5125C20.8504 20.6477 20.0572 19.9139 19.7065 19.6072C19.0482 19.0311 16.1605 16.0862 15.5319 15.9102C15.2473 15.8305 14.8494 16 14.727 16.0612C14.3835 16.2329 14.9364 17.38 15.0037 17.5952C15.4469 19.0135 15.875 20.5759 16.085 22.0465C16.1487 22.4919 16.1605 22.928 16.1605 23.3795C16.1605 23.544 16.1299 23.7867 15.909 23.7315C15.459 23.619 15.2689 22.9938 15.054 22.6502C13.9665 20.91 14.1895 18.8885 13.721 17.0169C13.6567 16.7596 12.5894 16.891 12.5894 16.891C12.5894 16.891 12.5894 17.2614 12.5894 17.3185C12.5894 17.7317 12.5229 18.1174 12.4889 18.5257C12.4429 19.0773 11.2759 24.2287 10.502 23.4548C10.1805 23.1333 10.1936 22.3815 10.2757 21.9712C10.5197 20.751 10.732 19.5239 10.9547 18.2994C11.032 17.8737 11.047 17.4355 11.1307 17.0169C11.14 16.9707 11.181 16.6899 11.181 16.6899C11.181 16.6899 10.6274 16.4597 10.4014 16.3629C10.1891 16.2719 10.0211 16.0329 9.89855 15.9102C9.89855 15.9102 9.78505 16.0679 9.77272 16.0862C9.69022 16.2099 9.60872 16.318 9.52122 16.4384C9.24672 16.8159 8.98672 17.209 8.69139 17.57C7.81322 18.6432 6.79322 19.4932 5.82439 20.4622C5.56989 20.7165 4.92406 21.5452 4.46639 21.3927C4.28089 21.3308 4.34056 20.8924 4.34056 20.764C4.34056 20.2589 4.77406 19.576 5.12022 19.2299C5.79739 18.5527 6.36339 17.6755 7.10689 17.067C7.72306 16.5629 8.35622 15.8682 8.91772 15.3067C9.13142 15.093 9.29489 14.067 8.69139 13.848C8.06469 13.6206 7.31573 13.9989 6.67939 13.9989C5.13806 13.9989 3.57906 14.217 2.05206 14.0995C1.63956 14.0679 0.866059 14.1092 0.517893 13.848C0.23906 13.6389 0.511893 13.3225 0.744227 13.2194C1.36739 12.9424 1.91756 12.9275 2.58023 12.8672C3.20889 12.81 3.83889 12.7937 4.46639 12.7415C5.15287 12.6842 7.65249 13.0997 8.16339 12.6392C8.40469 12.4217 8.28504 11.3141 8.38955 10.9307C8.38955 10.9307 8.03255 10.776 7.91172 10.6792C7.29022 10.182 6.62689 9.69453 5.97522 9.2207C4.95356 8.47753 4.04356 7.5067 2.98256 6.83153C2.51246 6.5323 1.90347 5.84112 1.54906 5.39803C1.44323 5.2657 1.20556 4.91437 1.42323 4.7692C2.09206 4.32337 2.88556 4.90354 3.43522 5.24703C4.26722 5.76703 5.08489 6.31453 5.87472 6.90687C6.42206 7.31753 7.09972 7.67937 7.58472 8.16437C7.94505 8.5247 8.30572 8.8852 8.66622 9.2457C8.73622 9.31586 8.87829 9.52202 9.06855 9.62303C9.71599 9.96676 10.6027 8.54153 10.6027 8.54153C10.6027 8.54153 10.4619 8.31036 10.4014 8.18953C10.2927 7.97203 10.208 7.73936 10.1249 7.51053C9.70505 6.3562 9.22005 5.04937 9.01822 3.8387C8.92105 3.2557 8.91772 2.65087 8.91772 2.0532C8.91772 1.70037 8.89472 1.32421 9.34522 1.39937C9.95222 1.50054 10.4719 2.44304 10.678 2.95854C10.9932 3.74637 11.0802 4.57487 11.2565 5.39803C11.4507 6.3042 11.5588 7.25053 11.9146 7.96986Z" fill="#E87100"/>
</svg>
